<svg xmlns="http://www.w3.org/2000/svg" width="741" height="271" viewBox="0 0 741 271">
  <defs>
    <linearGradient id="slapped-bg-alt-a" x1="100%" x2="0%" y1="32.179%" y2="67.821%">
      <stop offset="0%" stop-color="#3D32FF"/>
      <stop offset="100%" stop-color="#3D32FF"/>
    </linearGradient>
  </defs>
  <g fill="none" fill-rule="evenodd">
    <rect width="741" height="271" fill="#FEBE16"/>
    <rect width="804" height="480" fill="url(#slapped-bg-alt-a)"/>
    <g opacity=".77" transform="rotate(15 794.139 -581.544)">
      <g transform="translate(206.556 279.033)">
        <path fill="#FFF" d="M0,7.89189189 C23.733826,7.89189189 37.1198246,7.89189189 40.1579956,7.89189189 C44.7152522,7.89189189 48.4096386,4.35857154 48.4096386,0 C42.1750639,0 28.7890654,0 8.25164294,0" transform="rotate(180 24.205 3.946)"/>
        <path fill="#FFF" d="M19.7590361,65.1081081 L19.7590361,0 L59.9170318,0 C64.4742883,0 68.1686747,3.7693827 68.1686747,8.41915191 L68.1686747,8.41915191 L68.1686747,65.1081081 L19.7590361,65.1081081 Z"/>
        <path fill="#EBEBEB" d="M24.6987952,73 C48.4326212,73 61.8186198,73 64.8567908,73 C69.4140474,73 73.1084337,69.4666796 73.1084337,65.1081081 C66.8738591,65.1081081 53.4878605,65.1081081 32.9504381,65.1081081"/>
        <path fill="#EBEBEB" d="M33.5903614,73 C57.3241875,73 70.710186,73 73.7483571,73 C78.3056136,73 82,69.4666796 82,65.1081081 C75.7654253,65.1081081 62.3794268,65.1081081 41.8420044,65.1081081"/>
        <path fill="#FFF" d="M16.7951807,64.6148649 C16.7951807,69.2458471 20.55491,73 25.1927711,73 C29.8306322,73 33.5903614,69.2458471 33.5903614,64.6148649 C33.5903614,59.9838826 29.8306322,56.2297297 25.1927711,56.2297297"/>
        <rect width="5.928" height="65.108" x="16.795" fill="#FFF"/>
        <path fill="#EBEBEB" d="M16.7951807 7.89189189C16.7951807 3.53332035 13.0354515 0 8.39759036 0 3.75972927 0 0 3.53332035 0 7.89189189M26.6717682 13.8108108C25.5821253 13.8108108 24.6987952 12.9274807 24.6987952 11.8378378 24.6987952 10.748195 25.5821253 9.86486486 26.6717682 9.86486486L53.8687576 9.86486486C53.9636886 9.86486486 54.0570537 9.87156943 54.1484051 9.88453089 54.6873749 9.87181261 55.255342 9.86486486 55.8417306 9.86486486L56.1429719 9.86547843C59.537307 9.8793347 62.2409639 10.1261399 62.2409639 10.4285714 62.2409639 10.5260748 61.9599442 10.6177963 61.4653602 10.6977939 61.932083 10.9987397 62.2409639 11.5231439 62.2409639 12.1196911 62.2409639 13.0536707 61.4838238 13.8108108 60.5498442 13.8108108L26.6717682 13.8108108zM26.6717682 24.6621622C25.5821253 24.6621622 24.6987952 23.7788321 24.6987952 22.6891892 24.6987952 21.5995463 25.5821253 20.7162162 26.6717682 20.7162162L53.8687576 20.7162162C53.9636886 20.7162162 54.0570537 20.7229208 54.1484051 20.7358822 54.6873749 20.723164 55.255342 20.7162162 55.8417306 20.7162162L56.1429719 20.7168298C59.537307 20.7306861 62.2409639 20.9774913 62.2409639 21.2799228 62.2409639 21.3774261 61.9599442 21.4691477 61.4653602 21.5491453 61.932083 21.8500911 62.2409639 22.3744953 62.2409639 22.9710425 62.2409639 23.9050221 61.4838238 24.6621622 60.5498442 24.6621622L26.6717682 24.6621622zM26.6717682 36.5C25.5821253 36.5 24.6987952 35.6166699 24.6987952 34.527027 24.6987952 33.4373841 25.5821253 32.5540541 26.6717682 32.5540541L53.8687576 32.5540541C53.9636886 32.5540541 54.0570537 32.5607586 54.1484051 32.5737201 54.6873749 32.5610018 55.255342 32.5540541 55.8417306 32.5540541L56.1429719 32.5546676C59.537307 32.5685239 62.2409639 32.8153291 62.2409639 33.1177606 62.2409639 33.215264 61.9599442 33.3069855 61.4653602 33.3869831 61.932083 33.6879289 62.2409639 34.2123331 62.2409639 34.8088803 62.2409639 35.7428599 61.4838238 36.5 60.5498442 36.5L26.6717682 36.5zM26.6717682 47.3513514C25.5821253 47.3513514 24.6987952 46.4680213 24.6987952 45.3783784 24.6987952 44.2887355 25.5821253 43.4054054 26.6717682 43.4054054L53.8687576 43.4054054C53.9636886 43.4054054 54.0570537 43.41211 54.1484051 43.4250714 54.6873749 43.4123532 55.255342 43.4054054 55.8417306 43.4054054L56.1429719 43.406019C59.537307 43.4198752 62.2409639 43.6666805 62.2409639 43.969112 62.2409639 44.0666153 61.9599442 44.1583369 61.4653602 44.2383345 61.932083 44.5392803 62.2409639 45.0636845 62.2409639 45.6602317 62.2409639 46.5942113 61.4838238 47.3513514 60.5498442 47.3513514L26.6717682 47.3513514zM26.6717682 58.2027027C25.5821253 58.2027027 24.6987952 57.3193726 24.6987952 56.2297297 24.6987952 55.1400868 25.5821253 54.2567568 26.6717682 54.2567568L53.8687576 54.2567568C53.9636886 54.2567568 54.0570537 54.2634613 54.1484051 54.2764228 54.6873749 54.2637045 55.255342 54.2567568 55.8417306 54.2567568L56.1429719 54.2573703C59.537307 54.2712266 62.2409639 54.5180318 62.2409639 54.8204633 62.2409639 54.9179667 61.9599442 55.0096882 61.4653602 55.0896858 61.932083 55.3906316 62.2409639 55.9150358 62.2409639 56.511583 62.2409639 57.4455626 61.4838238 58.2027027 60.5498442 58.2027027L26.6717682 58.2027027z"/>
      </g>
      <g fill="#EBEBEB" transform="translate(205.626 93.968)">
        <path d="M24.6987952,73 C48.4326212,73 61.8186198,73 64.8567908,73 C69.4140474,73 73.1084337,69.4666796 73.1084337,65.1081081 C66.8738591,65.1081081 53.4878605,65.1081081 32.9504381,65.1081081"/>
        <path d="M33.5903614,73 C57.3241875,73 70.710186,73 73.7483571,73 C78.3056136,73 82,69.4666796 82,65.1081081 C75.7654253,65.1081081 62.3794268,65.1081081 41.8420044,65.1081081"/>
      </g>
      <g transform="translate(205.443 371.471)">
        <path fill="#FFF" d="M0,7.89189189 C23.733826,7.89189189 37.1198246,7.89189189 40.1579956,7.89189189 C44.7152522,7.89189189 48.4096386,4.35857154 48.4096386,0 C42.1750639,0 28.7890654,0 8.25164294,0" transform="rotate(180 24.205 3.946)"/>
        <path fill="#FFF" d="M19.7590361,65.1081081 L19.7590361,-1.70530257e-13 L59.9170318,-1.70530257e-13 C64.4742883,-1.70530257e-13 68.1686747,3.7693827 68.1686747,8.41915191 L68.1686747,8.41915191 L68.1686747,65.1081081 L19.7590361,65.1081081 Z"/>
        <path fill="#EBEBEB" d="M24.6987952,73 C48.4326212,73 61.8186198,73 64.8567908,73 C69.4140474,73 73.1084337,69.4666796 73.1084337,65.1081081 C66.8738591,65.1081081 53.4878605,65.1081081 32.9504381,65.1081081"/>
        <path fill="#EBEBEB" d="M33.5903614,73 C57.3241875,73 70.710186,73 73.7483571,73 C78.3056136,73 82,69.4666796 82,65.1081081 C75.7654253,65.1081081 62.3794268,65.1081081 41.8420044,65.1081081"/>
        <rect width="5.928" height="65.108" x="16.795" fill="#FFF"/>
        <path fill="#EBEBEB" d="M26.6717682 13.8108108C25.5821253 13.8108108 24.6987952 12.9274807 24.6987952 11.8378378 24.6987952 10.748195 25.5821253 9.86486486 26.6717682 9.86486486L53.8687576 9.86486486C53.9636886 9.86486486 54.0570537 9.87156943 54.1484051 9.88453089 54.6873749 9.87181261 55.255342 9.86486486 55.8417306 9.86486486L56.1429719 9.86547843C59.537307 9.8793347 62.2409639 10.1261399 62.2409639 10.4285714 62.2409639 10.5260748 61.9599442 10.6177963 61.4653602 10.6977939 61.932083 10.9987397 62.2409639 11.5231439 62.2409639 12.1196911 62.2409639 13.0536707 61.4838238 13.8108108 60.5498442 13.8108108L26.6717682 13.8108108zM26.6717682 24.6621622C25.5821253 24.6621622 24.6987952 23.7788321 24.6987952 22.6891892 24.6987952 21.5995463 25.5821253 20.7162162 26.6717682 20.7162162L53.8687576 20.7162162C53.9636886 20.7162162 54.0570537 20.7229208 54.1484051 20.7358822 54.6873749 20.723164 55.255342 20.7162162 55.8417306 20.7162162L56.1429719 20.7168298C59.537307 20.7306861 62.2409639 20.9774913 62.2409639 21.2799228 62.2409639 21.3774261 61.9599442 21.4691477 61.4653602 21.5491453 61.932083 21.8500911 62.2409639 22.3744953 62.2409639 22.9710425 62.2409639 23.9050221 61.4838238 24.6621622 60.5498442 24.6621622L26.6717682 24.6621622zM26.6717682 36.5C25.5821253 36.5 24.6987952 35.6166699 24.6987952 34.527027 24.6987952 33.4373841 25.5821253 32.5540541 26.6717682 32.5540541L53.8687576 32.5540541C53.9636886 32.5540541 54.0570537 32.5607586 54.1484051 32.5737201 54.6873749 32.5610018 55.255342 32.5540541 55.8417306 32.5540541L56.1429719 32.5546676C59.537307 32.5685239 62.2409639 32.8153291 62.2409639 33.1177606 62.2409639 33.215264 61.9599442 33.3069855 61.4653602 33.3869831 61.932083 33.6879289 62.2409639 34.2123331 62.2409639 34.8088803 62.2409639 35.7428599 61.4838238 36.5 60.5498442 36.5L26.6717682 36.5zM26.6717682 47.3513514C25.5821253 47.3513514 24.6987952 46.4680213 24.6987952 45.3783784 24.6987952 44.2887355 25.5821253 43.4054054 26.6717682 43.4054054L53.8687576 43.4054054C53.9636886 43.4054054 54.0570537 43.41211 54.1484051 43.4250714 54.6873749 43.4123532 55.255342 43.4054054 55.8417306 43.4054054L56.1429719 43.406019C59.537307 43.4198752 62.2409639 43.6666805 62.2409639 43.969112 62.2409639 44.0666153 61.9599442 44.1583369 61.4653602 44.2383345 61.932083 44.5392803 62.2409639 45.0636845 62.2409639 45.6602317 62.2409639 46.5942113 61.4838238 47.3513514 60.5498442 47.3513514L26.6717682 47.3513514zM26.6717682 58.2027027C25.5821253 58.2027027 24.6987952 57.3193726 24.6987952 56.2297297 24.6987952 55.1400868 25.5821253 54.2567568 26.6717682 54.2567568L53.8687576 54.2567568C53.9636886 54.2567568 54.0570537 54.2634613 54.1484051 54.2764228 54.6873749 54.2637045 55.255342 54.2567568 55.8417306 54.2567568L56.1429719 54.2573703C59.537307 54.2712266 62.2409639 54.5180318 62.2409639 54.8204633 62.2409639 54.9179667 61.9599442 55.0096882 61.4653602 55.0896858 61.932083 55.3906316 62.2409639 55.9150358 62.2409639 56.511583 62.2409639 57.4455626 61.4838238 58.2027027 60.5498442 58.2027027L26.6717682 58.2027027z"/>
      </g>
      <g transform="translate(205.479 186.147)">
        <path fill="#FFF" d="M0,7.89189189 C23.733826,7.89189189 37.1198246,7.89189189 40.1579956,7.89189189 C44.7152522,7.89189189 48.4096386,4.35857154 48.4096386,0 C42.1750639,0 28.7890654,0 8.25164294,0" transform="rotate(180 24.205 3.946)"/>
        <path fill="#FFF" d="M19.7590361,65.1081081 L19.7590361,-1.13686838e-13 L59.9170318,-1.13686838e-13 C64.4742883,-1.13686838e-13 68.1686747,3.7693827 68.1686747,8.41915191 L68.1686747,8.41915191 L68.1686747,65.1081081 L19.7590361,65.1081081 Z"/>
        <path fill="#EBEBEB" d="M24.6987952,73 C48.4326212,73 61.8186198,73 64.8567908,73 C69.4140474,73 73.1084337,69.4666796 73.1084337,65.1081081 C66.8738591,65.1081081 53.4878605,65.1081081 32.9504381,65.1081081"/>
        <path fill="#EBEBEB" d="M33.5903614,73 C57.3241875,73 70.710186,73 73.7483571,73 C78.3056136,73 82,69.4666796 82,65.1081081 C75.7654253,65.1081081 62.3794268,65.1081081 41.8420044,65.1081081"/>
        <path fill="#FFF" d="M16.7951807,64.6148649 C16.7951807,69.2458471 20.55491,73 25.1927711,73 C29.8306322,73 33.5903614,69.2458471 33.5903614,64.6148649 C33.5903614,59.9838826 29.8306322,56.2297297 25.1927711,56.2297297"/>
        <rect width="5.928" height="65.108" x="16.795" fill="#FFF"/>
        <path fill="#EBEBEB" d="M16.7951807 7.89189189C16.7951807 3.53332035 13.0354515 0 8.39759036 0 3.75972927 0 0 3.53332035 0 7.89189189M26.6717682 13.8108108C25.5821253 13.8108108 24.6987952 12.9274807 24.6987952 11.8378378 24.6987952 10.748195 25.5821253 9.86486486 26.6717682 9.86486486L53.8687576 9.86486486C53.9636886 9.86486486 54.0570537 9.87156943 54.1484051 9.88453089 54.6873749 9.87181261 55.255342 9.86486486 55.8417306 9.86486486L56.1429719 9.86547843C59.537307 9.8793347 62.2409639 10.1261399 62.2409639 10.4285714 62.2409639 10.5260748 61.9599442 10.6177963 61.4653602 10.6977939 61.932083 10.9987397 62.2409639 11.5231439 62.2409639 12.1196911 62.2409639 13.0536707 61.4838238 13.8108108 60.5498442 13.8108108L26.6717682 13.8108108zM26.6717682 24.6621622C25.5821253 24.6621622 24.6987952 23.7788321 24.6987952 22.6891892 24.6987952 21.5995463 25.5821253 20.7162162 26.6717682 20.7162162L53.8687576 20.7162162C53.9636886 20.7162162 54.0570537 20.7229208 54.1484051 20.7358822 54.6873749 20.723164 55.255342 20.7162162 55.8417306 20.7162162L56.1429719 20.7168298C59.537307 20.7306861 62.2409639 20.9774913 62.2409639 21.2799228 62.2409639 21.3774261 61.9599442 21.4691477 61.4653602 21.5491453 61.932083 21.8500911 62.2409639 22.3744953 62.2409639 22.9710425 62.2409639 23.9050221 61.4838238 24.6621622 60.5498442 24.6621622L26.6717682 24.6621622zM26.6717682 36.5C25.5821253 36.5 24.6987952 35.6166699 24.6987952 34.527027 24.6987952 33.4373841 25.5821253 32.5540541 26.6717682 32.5540541L53.8687576 32.5540541C53.9636886 32.5540541 54.0570537 32.5607586 54.1484051 32.5737201 54.6873749 32.5610018 55.255342 32.5540541 55.8417306 32.5540541L56.1429719 32.5546676C59.537307 32.5685239 62.2409639 32.8153291 62.2409639 33.1177606 62.2409639 33.215264 61.9599442 33.3069855 61.4653602 33.3869831 61.932083 33.6879289 62.2409639 34.2123331 62.2409639 34.8088803 62.2409639 35.7428599 61.4838238 36.5 60.5498442 36.5L26.6717682 36.5zM26.6717682 47.3513514C25.5821253 47.3513514 24.6987952 46.4680213 24.6987952 45.3783784 24.6987952 44.2887355 25.5821253 43.4054054 26.6717682 43.4054054L53.8687576 43.4054054C53.9636886 43.4054054 54.0570537 43.41211 54.1484051 43.4250714 54.6873749 43.4123532 55.255342 43.4054054 55.8417306 43.4054054L56.1429719 43.406019C59.537307 43.4198752 62.2409639 43.6666805 62.2409639 43.969112 62.2409639 44.0666153 61.9599442 44.1583369 61.4653602 44.2383345 61.932083 44.5392803 62.2409639 45.0636845 62.2409639 45.6602317 62.2409639 46.5942113 61.4838238 47.3513514 60.5498442 47.3513514L26.6717682 47.3513514zM26.6717682 58.2027027C25.5821253 58.2027027 24.6987952 57.3193726 24.6987952 56.2297297 24.6987952 55.1400868 25.5821253 54.2567568 26.6717682 54.2567568L53.8687576 54.2567568C53.9636886 54.2567568 54.0570537 54.2634613 54.1484051 54.2764228 54.6873749 54.2637045 55.255342 54.2567568 55.8417306 54.2567568L56.1429719 54.2573703C59.537307 54.2712266 62.2409639 54.5180318 62.2409639 54.8204633 62.2409639 54.9179667 61.9599442 55.0096882 61.4653602 55.0896858 61.932083 55.3906316 62.2409639 55.9150358 62.2409639 56.511583 62.2409639 57.4455626 61.4838238 58.2027027 60.5498442 58.2027027L26.6717682 58.2027027z"/>
      </g>
      <g transform="translate(818.495 1.184)">
        <path fill="#FFF" d="M0,7.89189189 C23.733826,7.89189189 37.1198246,7.89189189 40.1579956,7.89189189 C44.7152522,7.89189189 48.4096386,4.35857154 48.4096386,0 C42.1750639,0 28.7890654,0 8.25164294,0" transform="rotate(180 24.205 3.946)"/>
        <path fill="#FFF" d="M19.7590361,65.1081081 L19.7590361,1.13686838e-13 L59.9170318,1.13686838e-13 C64.4742883,1.13686838e-13 68.1686747,3.7693827 68.1686747,8.41915191 L68.1686747,8.41915191 L68.1686747,65.1081081 L19.7590361,65.1081081 Z"/>
        <path fill="#EBEBEB" d="M24.6987952,73 C48.4326212,73 61.8186198,73 64.8567908,73 C69.4140474,73 73.1084337,69.4666796 73.1084337,65.1081081 C66.8738591,65.1081081 53.4878605,65.1081081 32.9504381,65.1081081"/>
        <path fill="#EBEBEB" d="M33.5903614,73 C57.3241875,73 70.710186,73 73.7483571,73 C78.3056136,73 82,69.4666796 82,65.1081081 C75.7654253,65.1081081 62.3794268,65.1081081 41.8420044,65.1081081"/>
        <path fill="#FFF" d="M16.7951807,64.6148649 C16.7951807,69.2458471 20.55491,73 25.1927711,73 C29.8306322,73 33.5903614,69.2458471 33.5903614,64.6148649 C33.5903614,59.9838826 29.8306322,56.2297297 25.1927711,56.2297297"/>
        <rect width="5.928" height="65.108" x="16.795" fill="#FFF"/>
        <path fill="#EBEBEB" d="M26.6717682 13.8108108C25.5821253 13.8108108 24.6987952 12.9274807 24.6987952 11.8378378 24.6987952 10.748195 25.5821253 9.86486486 26.6717682 9.86486486L53.8687576 9.86486486C53.9636886 9.86486486 54.0570537 9.87156943 54.1484051 9.88453089 54.6873749 9.87181261 55.255342 9.86486486 55.8417306 9.86486486L56.1429719 9.86547843C59.537307 9.8793347 62.2409639 10.1261399 62.2409639 10.4285714 62.2409639 10.5260748 61.9599442 10.6177963 61.4653602 10.6977939 61.932083 10.9987397 62.2409639 11.5231439 62.2409639 12.1196911 62.2409639 13.0536707 61.4838238 13.8108108 60.5498442 13.8108108L26.6717682 13.8108108zM26.6717682 24.6621622C25.5821253 24.6621622 24.6987952 23.7788321 24.6987952 22.6891892 24.6987952 21.5995463 25.5821253 20.7162162 26.6717682 20.7162162L53.8687576 20.7162162C53.9636886 20.7162162 54.0570537 20.7229208 54.1484051 20.7358822 54.6873749 20.723164 55.255342 20.7162162 55.8417306 20.7162162L56.1429719 20.7168298C59.537307 20.7306861 62.2409639 20.9774913 62.2409639 21.2799228 62.2409639 21.3774261 61.9599442 21.4691477 61.4653602 21.5491453 61.932083 21.8500911 62.2409639 22.3744953 62.2409639 22.9710425 62.2409639 23.9050221 61.4838238 24.6621622 60.5498442 24.6621622L26.6717682 24.6621622zM26.6717682 36.5C25.5821253 36.5 24.6987952 35.6166699 24.6987952 34.527027 24.6987952 33.4373841 25.5821253 32.5540541 26.6717682 32.5540541L53.8687576 32.5540541C53.9636886 32.5540541 54.0570537 32.5607586 54.1484051 32.5737201 54.6873749 32.5610018 55.255342 32.5540541 55.8417306 32.5540541L56.1429719 32.5546676C59.537307 32.5685239 62.2409639 32.8153291 62.2409639 33.1177606 62.2409639 33.215264 61.9599442 33.3069855 61.4653602 33.3869831 61.932083 33.6879289 62.2409639 34.2123331 62.2409639 34.8088803 62.2409639 35.7428599 61.4838238 36.5 60.5498442 36.5L26.6717682 36.5zM26.6717682 47.3513514C25.5821253 47.3513514 24.6987952 46.4680213 24.6987952 45.3783784 24.6987952 44.2887355 25.5821253 43.4054054 26.6717682 43.4054054L53.8687576 43.4054054C53.9636886 43.4054054 54.0570537 43.41211 54.1484051 43.4250714 54.6873749 43.4123532 55.255342 43.4054054 55.8417306 43.4054054L56.1429719 43.406019C59.537307 43.4198752 62.2409639 43.6666805 62.2409639 43.969112 62.2409639 44.0666153 61.9599442 44.1583369 61.4653602 44.2383345 61.932083 44.5392803 62.2409639 45.0636845 62.2409639 45.6602317 62.2409639 46.5942113 61.4838238 47.3513514 60.5498442 47.3513514L26.6717682 47.3513514zM26.6717682 58.2027027C25.5821253 58.2027027 24.6987952 57.3193726 24.6987952 56.2297297 24.6987952 55.1400868 25.5821253 54.2567568 26.6717682 54.2567568L53.8687576 54.2567568C53.9636886 54.2567568 54.0570537 54.2634613 54.1484051 54.2764228 54.6873749 54.2637045 55.255342 54.2567568 55.8417306 54.2567568L56.1429719 54.2573703C59.537307 54.2712266 62.2409639 54.5180318 62.2409639 54.8204633 62.2409639 54.9179667 61.9599442 55.0096882 61.4653602 55.0896858 61.932083 55.3906316 62.2409639 55.9150358 62.2409639 56.511583 62.2409639 57.4455626 61.4838238 58.2027027 60.5498442 58.2027027L26.6717682 58.2027027z"/>
      </g>
      <g transform="translate(818.312 278.687)">
        <path fill="#FFF" d="M0,7.89189189 C23.733826,7.89189189 37.1198246,7.89189189 40.1579956,7.89189189 C44.7152522,7.89189189 48.4096386,4.35857154 48.4096386,0 C42.1750639,0 28.7890654,0 8.25164294,0" transform="rotate(180 24.205 3.946)"/>
        <path fill="#FFF" d="M19.7590361,65.1081081 L19.7590361,2.27373675e-13 L59.9170318,2.27373675e-13 C64.4742883,2.27373675e-13 68.1686747,3.7693827 68.1686747,8.41915191 L68.1686747,8.41915191 L68.1686747,65.1081081 L19.7590361,65.1081081 Z"/>
        <rect width="5.928" height="65.108" x="16.795" fill="#FFF"/>
        <path fill="#EBEBEB" d="M16.7951807,7.89189189 C16.7951807,3.53332035 13.0354515,0 8.39759036,0 C3.75972927,0 0,3.53332035 0,7.89189189"/>
      </g>
      <g transform="translate(818.348 93.363)">
        <path fill="#FFF" d="M0,7.89189189 C23.733826,7.89189189 37.1198246,7.89189189 40.1579956,7.89189189 C44.7152522,7.89189189 48.4096386,4.35857154 48.4096386,0 C42.1750639,0 28.7890654,0 8.25164294,0" transform="rotate(180 24.205 3.946)"/>
        <path fill="#FFF" d="M19.7590361,65.1081081 L19.7590361,0 L59.9170318,0 C64.4742883,0 68.1686747,3.7693827 68.1686747,8.41915191 L68.1686747,8.41915191 L68.1686747,65.1081081 L19.7590361,65.1081081 Z"/>
        <path fill="#EBEBEB" d="M24.6987952,73 C48.4326212,73 61.8186198,73 64.8567908,73 C69.4140474,73 73.1084337,69.4666796 73.1084337,65.1081081 C66.8738591,65.1081081 53.4878605,65.1081081 32.9504381,65.1081081"/>
        <path fill="#EBEBEB" d="M33.5903614,73 C57.3241875,73 70.710186,73 73.7483571,73 C78.3056136,73 82,69.4666796 82,65.1081081 C75.7654253,65.1081081 62.3794268,65.1081081 41.8420044,65.1081081"/>
        <path fill="#FFF" d="M16.7951807,64.6148649 C16.7951807,69.2458471 20.55491,73 25.1927711,73 C29.8306322,73 33.5903614,69.2458471 33.5903614,64.6148649 C33.5903614,59.9838826 29.8306322,56.2297297 25.1927711,56.2297297"/>
        <rect width="5.928" height="65.108" x="16.795" fill="#FFF"/>
        <path fill="#EBEBEB" d="M16.7951807 7.89189189C16.7951807 3.53332035 13.0354515 0 8.39759036 0 3.75972927 0 0 3.53332035 0 7.89189189M26.6717682 13.8108108C25.5821253 13.8108108 24.6987952 12.9274807 24.6987952 11.8378378 24.6987952 10.748195 25.5821253 9.86486486 26.6717682 9.86486486L53.8687576 9.86486486C53.9636886 9.86486486 54.0570537 9.87156943 54.1484051 9.88453089 54.6873749 9.87181261 55.255342 9.86486486 55.8417306 9.86486486L56.1429719 9.86547843C59.537307 9.8793347 62.2409639 10.1261399 62.2409639 10.4285714 62.2409639 10.5260748 61.9599442 10.6177963 61.4653602 10.6977939 61.932083 10.9987397 62.2409639 11.5231439 62.2409639 12.1196911 62.2409639 13.0536707 61.4838238 13.8108108 60.5498442 13.8108108L26.6717682 13.8108108zM26.6717682 24.6621622C25.5821253 24.6621622 24.6987952 23.7788321 24.6987952 22.6891892 24.6987952 21.5995463 25.5821253 20.7162162 26.6717682 20.7162162L53.8687576 20.7162162C53.9636886 20.7162162 54.0570537 20.7229208 54.1484051 20.7358822 54.6873749 20.723164 55.255342 20.7162162 55.8417306 20.7162162L56.1429719 20.7168298C59.537307 20.7306861 62.2409639 20.9774913 62.2409639 21.2799228 62.2409639 21.3774261 61.9599442 21.4691477 61.4653602 21.5491453 61.932083 21.8500911 62.2409639 22.3744953 62.2409639 22.9710425 62.2409639 23.9050221 61.4838238 24.6621622 60.5498442 24.6621622L26.6717682 24.6621622zM26.6717682 36.5C25.5821253 36.5 24.6987952 35.6166699 24.6987952 34.527027 24.6987952 33.4373841 25.5821253 32.5540541 26.6717682 32.5540541L53.8687576 32.5540541C53.9636886 32.5540541 54.0570537 32.5607586 54.1484051 32.5737201 54.6873749 32.5610018 55.255342 32.5540541 55.8417306 32.5540541L56.1429719 32.5546676C59.537307 32.5685239 62.2409639 32.8153291 62.2409639 33.1177606 62.2409639 33.215264 61.9599442 33.3069855 61.4653602 33.3869831 61.932083 33.6879289 62.2409639 34.2123331 62.2409639 34.8088803 62.2409639 35.7428599 61.4838238 36.5 60.5498442 36.5L26.6717682 36.5zM26.6717682 47.3513514C25.5821253 47.3513514 24.6987952 46.4680213 24.6987952 45.3783784 24.6987952 44.2887355 25.5821253 43.4054054 26.6717682 43.4054054L53.8687576 43.4054054C53.9636886 43.4054054 54.0570537 43.41211 54.1484051 43.4250714 54.6873749 43.4123532 55.255342 43.4054054 55.8417306 43.4054054L56.1429719 43.406019C59.537307 43.4198752 62.2409639 43.6666805 62.2409639 43.969112 62.2409639 44.0666153 61.9599442 44.1583369 61.4653602 44.2383345 61.932083 44.5392803 62.2409639 45.0636845 62.2409639 45.6602317 62.2409639 46.5942113 61.4838238 47.3513514 60.5498442 47.3513514L26.6717682 47.3513514zM26.6717682 58.2027027C25.5821253 58.2027027 24.6987952 57.3193726 24.6987952 56.2297297 24.6987952 55.1400868 25.5821253 54.2567568 26.6717682 54.2567568L53.8687576 54.2567568C53.9636886 54.2567568 54.0570537 54.2634613 54.1484051 54.2764228 54.6873749 54.2637045 55.255342 54.2567568 55.8417306 54.2567568L56.1429719 54.2573703C59.537307 54.2712266 62.2409639 54.5180318 62.2409639 54.8204633 62.2409639 54.9179667 61.9599442 55.0096882 61.4653602 55.0896858 61.932083 55.3906316 62.2409639 55.9150358 62.2409639 56.511583 62.2409639 57.4455626 61.4838238 58.2027027 60.5498442 58.2027027L26.6717682 58.2027027z"/>
      </g>
      <path fill="#EBEBEB" d="M33.5903614,73 C57.3241875,73 70.710186,73 73.7483571,73 C78.3056136,73 82,69.4666796 82,65.1081081 C75.7654253,65.1081081 62.3794268,65.1081081 41.8420044,65.1081081" transform="translate(512.134 1.487)"/>
      <g transform="translate(511.951 278.99)">
        <path fill="#FFF" d="M0,7.89189189 C23.733826,7.89189189 37.1198246,7.89189189 40.1579956,7.89189189 C44.7152522,7.89189189 48.4096386,4.35857154 48.4096386,0 C42.1750639,0 28.7890654,0 8.25164294,0" transform="rotate(180 24.205 3.946)"/>
        <path fill="#FFF" d="M19.7590361,65.1081081 L19.7590361,1.13686838e-13 L59.9170318,1.13686838e-13 C64.4742883,1.13686838e-13 68.1686747,3.7693827 68.1686747,8.41915191 L68.1686747,8.41915191 L68.1686747,65.1081081 L19.7590361,65.1081081 Z"/>
        <path fill="#EBEBEB" d="M24.6987952,73 C48.4326212,73 61.8186198,73 64.8567908,73 C69.4140474,73 73.1084337,69.4666796 73.1084337,65.1081081 C66.8738591,65.1081081 53.4878605,65.1081081 32.9504381,65.1081081"/>
        <path fill="#EBEBEB" d="M33.5903614,73 C57.3241875,73 70.710186,73 73.7483571,73 C78.3056136,73 82,69.4666796 82,65.1081081 C75.7654253,65.1081081 62.3794268,65.1081081 41.8420044,65.1081081"/>
        <path fill="#FFF" d="M16.7951807,64.6148649 C16.7951807,69.2458471 20.55491,73 25.1927711,73 C29.8306322,73 33.5903614,69.2458471 33.5903614,64.6148649 C33.5903614,59.9838826 29.8306322,56.2297297 25.1927711,56.2297297"/>
        <rect width="5.928" height="65.108" x="16.795" fill="#FFF"/>
        <path fill="#EBEBEB" d="M16.7951807 7.89189189C16.7951807 3.53332035 13.0354515 0 8.39759036 0 3.75972927 0 0 3.53332035 0 7.89189189M26.6717682 13.8108108C25.5821253 13.8108108 24.6987952 12.9274807 24.6987952 11.8378378 24.6987952 10.748195 25.5821253 9.86486486 26.6717682 9.86486486L53.8687576 9.86486486C53.9636886 9.86486486 54.0570537 9.87156943 54.1484051 9.88453089 54.6873749 9.87181261 55.255342 9.86486486 55.8417306 9.86486486L56.1429719 9.86547843C59.537307 9.8793347 62.2409639 10.1261399 62.2409639 10.4285714 62.2409639 10.5260748 61.9599442 10.6177963 61.4653602 10.6977939 61.932083 10.9987397 62.2409639 11.5231439 62.2409639 12.1196911 62.2409639 13.0536707 61.4838238 13.8108108 60.5498442 13.8108108L26.6717682 13.8108108zM26.6717682 24.6621622C25.5821253 24.6621622 24.6987952 23.7788321 24.6987952 22.6891892 24.6987952 21.5995463 25.5821253 20.7162162 26.6717682 20.7162162L53.8687576 20.7162162C53.9636886 20.7162162 54.0570537 20.7229208 54.1484051 20.7358822 54.6873749 20.723164 55.255342 20.7162162 55.8417306 20.7162162L56.1429719 20.7168298C59.537307 20.7306861 62.2409639 20.9774913 62.2409639 21.2799228 62.2409639 21.3774261 61.9599442 21.4691477 61.4653602 21.5491453 61.932083 21.8500911 62.2409639 22.3744953 62.2409639 22.9710425 62.2409639 23.9050221 61.4838238 24.6621622 60.5498442 24.6621622L26.6717682 24.6621622zM26.6717682 36.5C25.5821253 36.5 24.6987952 35.6166699 24.6987952 34.527027 24.6987952 33.4373841 25.5821253 32.5540541 26.6717682 32.5540541L53.8687576 32.5540541C53.9636886 32.5540541 54.0570537 32.5607586 54.1484051 32.5737201 54.6873749 32.5610018 55.255342 32.5540541 55.8417306 32.5540541L56.1429719 32.5546676C59.537307 32.5685239 62.2409639 32.8153291 62.2409639 33.1177606 62.2409639 33.215264 61.9599442 33.3069855 61.4653602 33.3869831 61.932083 33.6879289 62.2409639 34.2123331 62.2409639 34.8088803 62.2409639 35.7428599 61.4838238 36.5 60.5498442 36.5L26.6717682 36.5zM26.6717682 47.3513514C25.5821253 47.3513514 24.6987952 46.4680213 24.6987952 45.3783784 24.6987952 44.2887355 25.5821253 43.4054054 26.6717682 43.4054054L53.8687576 43.4054054C53.9636886 43.4054054 54.0570537 43.41211 54.1484051 43.4250714 54.6873749 43.4123532 55.255342 43.4054054 55.8417306 43.4054054L56.1429719 43.406019C59.537307 43.4198752 62.2409639 43.6666805 62.2409639 43.969112 62.2409639 44.0666153 61.9599442 44.1583369 61.4653602 44.2383345 61.932083 44.5392803 62.2409639 45.0636845 62.2409639 45.6602317 62.2409639 46.5942113 61.4838238 47.3513514 60.5498442 47.3513514L26.6717682 47.3513514zM26.6717682 58.2027027C25.5821253 58.2027027 24.6987952 57.3193726 24.6987952 56.2297297 24.6987952 55.1400868 25.5821253 54.2567568 26.6717682 54.2567568L53.8687576 54.2567568C53.9636886 54.2567568 54.0570537 54.2634613 54.1484051 54.2764228 54.6873749 54.2637045 55.255342 54.2567568 55.8417306 54.2567568L56.1429719 54.2573703C59.537307 54.2712266 62.2409639 54.5180318 62.2409639 54.8204633 62.2409639 54.9179667 61.9599442 55.0096882 61.4653602 55.0896858 61.932083 55.3906316 62.2409639 55.9150358 62.2409639 56.511583 62.2409639 57.4455626 61.4838238 58.2027027 60.5498442 58.2027027L26.6717682 58.2027027z"/>
      </g>
      <g transform="translate(511.987 93.666)">
        <path fill="#FFF" d="M0,7.89189189 C23.733826,7.89189189 37.1198246,7.89189189 40.1579956,7.89189189 C44.7152522,7.89189189 48.4096386,4.35857154 48.4096386,0 C42.1750639,0 28.7890654,0 8.25164294,0" transform="rotate(180 24.205 3.946)"/>
        <path fill="#FFF" d="M19.7590361,65.1081081 L19.7590361,0 L59.9170318,0 C64.4742883,0 68.1686747,3.7693827 68.1686747,8.41915191 L68.1686747,8.41915191 L68.1686747,65.1081081 L19.7590361,65.1081081 Z"/>
        <path fill="#EBEBEB" d="M24.6987952,73 C48.4326212,73 61.8186198,73 64.8567908,73 C69.4140474,73 73.1084337,69.4666796 73.1084337,65.1081081 C66.8738591,65.1081081 53.4878605,65.1081081 32.9504381,65.1081081"/>
        <path fill="#EBEBEB" d="M33.5903614,73 C57.3241875,73 70.710186,73 73.7483571,73 C78.3056136,73 82,69.4666796 82,65.1081081 C75.7654253,65.1081081 62.3794268,65.1081081 41.8420044,65.1081081"/>
        <path fill="#FFF" d="M16.7951807,64.6148649 C16.7951807,69.2458471 20.55491,73 25.1927711,73 C29.8306322,73 33.5903614,69.2458471 33.5903614,64.6148649 C33.5903614,59.9838826 29.8306322,56.2297297 25.1927711,56.2297297"/>
        <rect width="5.928" height="65.108" x="16.795" fill="#FFF"/>
        <path fill="#EBEBEB" d="M16.7951807 7.89189189C16.7951807 3.53332035 13.0354515 0 8.39759036 0 3.75972927 0 0 3.53332035 0 7.89189189M26.6717682 13.8108108C25.5821253 13.8108108 24.6987952 12.9274807 24.6987952 11.8378378 24.6987952 10.748195 25.5821253 9.86486486 26.6717682 9.86486486L53.8687576 9.86486486C53.9636886 9.86486486 54.0570537 9.87156943 54.1484051 9.88453089 54.6873749 9.87181261 55.255342 9.86486486 55.8417306 9.86486486L56.1429719 9.86547843C59.537307 9.8793347 62.2409639 10.1261399 62.2409639 10.4285714 62.2409639 10.5260748 61.9599442 10.6177963 61.4653602 10.6977939 61.932083 10.9987397 62.2409639 11.5231439 62.2409639 12.1196911 62.2409639 13.0536707 61.4838238 13.8108108 60.5498442 13.8108108L26.6717682 13.8108108zM26.6717682 24.6621622C25.5821253 24.6621622 24.6987952 23.7788321 24.6987952 22.6891892 24.6987952 21.5995463 25.5821253 20.7162162 26.6717682 20.7162162L53.8687576 20.7162162C53.9636886 20.7162162 54.0570537 20.7229208 54.1484051 20.7358822 54.6873749 20.723164 55.255342 20.7162162 55.8417306 20.7162162L56.1429719 20.7168298C59.537307 20.7306861 62.2409639 20.9774913 62.2409639 21.2799228 62.2409639 21.3774261 61.9599442 21.4691477 61.4653602 21.5491453 61.932083 21.8500911 62.2409639 22.3744953 62.2409639 22.9710425 62.2409639 23.9050221 61.4838238 24.6621622 60.5498442 24.6621622L26.6717682 24.6621622zM26.6717682 36.5C25.5821253 36.5 24.6987952 35.6166699 24.6987952 34.527027 24.6987952 33.4373841 25.5821253 32.5540541 26.6717682 32.5540541L53.8687576 32.5540541C53.9636886 32.5540541 54.0570537 32.5607586 54.1484051 32.5737201 54.6873749 32.5610018 55.255342 32.5540541 55.8417306 32.5540541L56.1429719 32.5546676C59.537307 32.5685239 62.2409639 32.8153291 62.2409639 33.1177606 62.2409639 33.215264 61.9599442 33.3069855 61.4653602 33.3869831 61.932083 33.6879289 62.2409639 34.2123331 62.2409639 34.8088803 62.2409639 35.7428599 61.4838238 36.5 60.5498442 36.5L26.6717682 36.5zM26.6717682 47.3513514C25.5821253 47.3513514 24.6987952 46.4680213 24.6987952 45.3783784 24.6987952 44.2887355 25.5821253 43.4054054 26.6717682 43.4054054L53.8687576 43.4054054C53.9636886 43.4054054 54.0570537 43.41211 54.1484051 43.4250714 54.6873749 43.4123532 55.255342 43.4054054 55.8417306 43.4054054L56.1429719 43.406019C59.537307 43.4198752 62.2409639 43.6666805 62.2409639 43.969112 62.2409639 44.0666153 61.9599442 44.1583369 61.4653602 44.2383345 61.932083 44.5392803 62.2409639 45.0636845 62.2409639 45.6602317 62.2409639 46.5942113 61.4838238 47.3513514 60.5498442 47.3513514L26.6717682 47.3513514zM26.6717682 58.2027027C25.5821253 58.2027027 24.6987952 57.3193726 24.6987952 56.2297297 24.6987952 55.1400868 25.5821253 54.2567568 26.6717682 54.2567568L53.8687576 54.2567568C53.9636886 54.2567568 54.0570537 54.2634613 54.1484051 54.2764228 54.6873749 54.2637045 55.255342 54.2567568 55.8417306 54.2567568L56.1429719 54.2573703C59.537307 54.2712266 62.2409639 54.5180318 62.2409639 54.8204633 62.2409639 54.9179667 61.9599442 55.0096882 61.4653602 55.0896858 61.932083 55.3906316 62.2409639 55.9150358 62.2409639 56.511583 62.2409639 57.4455626 61.4838238 58.2027027 60.5498442 58.2027027L26.6717682 58.2027027z"/>
      </g>
      <g transform="translate(511.804 371.169)">
        <path fill="#FFF" d="M0,7.89189189 C23.733826,7.89189189 37.1198246,7.89189189 40.1579956,7.89189189 C44.7152522,7.89189189 48.4096386,4.35857154 48.4096386,0 C42.1750639,0 28.7890654,0 8.25164294,0" transform="rotate(180 24.205 3.946)"/>
        <path fill="#FFF" d="M19.7590361,65.1081081 L19.7590361,1.13686838e-13 L59.9170318,1.13686838e-13 C64.4742883,1.13686838e-13 68.1686747,3.7693827 68.1686747,8.41915191 L68.1686747,8.41915191 L68.1686747,65.1081081 L19.7590361,65.1081081 Z"/>
        <rect width="5.928" height="65.108" x="16.795" fill="#FFF"/>
        <path fill="#EBEBEB" d="M16.7951807,7.89189189 C16.7951807,3.53332035 13.0354515,0 8.39759036,0 C3.75972927,0 0,3.53332035 0,7.89189189"/>
      </g>
      <g transform="translate(512.805 185.586)">
        <path fill="#FFF" d="M0,7.89189189 C23.733826,7.89189189 37.1198246,7.89189189 40.1579956,7.89189189 C44.7152522,7.89189189 48.4096386,4.35857154 48.4096386,0 C42.1750639,0 28.7890654,0 8.25164294,0" transform="rotate(180 24.205 3.946)"/>
        <path fill="#FFF" d="M19.7590361,65.1081081 L19.7590361,-2.27373675e-13 L59.9170318,-2.27373675e-13 C64.4742883,-2.27373675e-13 68.1686747,3.7693827 68.1686747,8.41915191 L68.1686747,8.41915191 L68.1686747,65.1081081 L19.7590361,65.1081081 Z"/>
        <path fill="#EBEBEB" d="M24.6987952,73 C48.4326212,73 61.8186198,73 64.8567908,73 C69.4140474,73 73.1084337,69.4666796 73.1084337,65.1081081 C66.8738591,65.1081081 53.4878605,65.1081081 32.9504381,65.1081081"/>
        <path fill="#EBEBEB" d="M33.5903614,73 C57.3241875,73 70.710186,73 73.7483571,73 C78.3056136,73 82,69.4666796 82,65.1081081 C75.7654253,65.1081081 62.3794268,65.1081081 41.8420044,65.1081081"/>
        <path fill="#FFF" d="M16.7951807,64.6148649 C16.7951807,69.2458471 20.55491,73 25.1927711,73 C29.8306322,73 33.5903614,69.2458471 33.5903614,64.6148649 C33.5903614,59.9838826 29.8306322,56.2297297 25.1927711,56.2297297"/>
        <rect width="5.928" height="65.108" x="16.795" fill="#FFF"/>
        <path fill="#EBEBEB" d="M16.7951807 7.89189189C16.7951807 3.53332035 13.0354515 0 8.39759036 0 3.75972927 0 0 3.53332035 0 7.89189189M26.6717682 13.8108108C25.5821253 13.8108108 24.6987952 12.9274807 24.6987952 11.8378378 24.6987952 10.748195 25.5821253 9.86486486 26.6717682 9.86486486L53.8687576 9.86486486C53.9636886 9.86486486 54.0570537 9.87156943 54.1484051 9.88453089 54.6873749 9.87181261 55.255342 9.86486486 55.8417306 9.86486486L56.1429719 9.86547843C59.537307 9.8793347 62.2409639 10.1261399 62.2409639 10.4285714 62.2409639 10.5260748 61.9599442 10.6177963 61.4653602 10.6977939 61.932083 10.9987397 62.2409639 11.5231439 62.2409639 12.1196911 62.2409639 13.0536707 61.4838238 13.8108108 60.5498442 13.8108108L26.6717682 13.8108108zM26.6717682 24.6621622C25.5821253 24.6621622 24.6987952 23.7788321 24.6987952 22.6891892 24.6987952 21.5995463 25.5821253 20.7162162 26.6717682 20.7162162L53.8687576 20.7162162C53.9636886 20.7162162 54.0570537 20.7229208 54.1484051 20.7358822 54.6873749 20.723164 55.255342 20.7162162 55.8417306 20.7162162L56.1429719 20.7168298C59.537307 20.7306861 62.2409639 20.9774913 62.2409639 21.2799228 62.2409639 21.3774261 61.9599442 21.4691477 61.4653602 21.5491453 61.932083 21.8500911 62.2409639 22.3744953 62.2409639 22.9710425 62.2409639 23.9050221 61.4838238 24.6621622 60.5498442 24.6621622L26.6717682 24.6621622zM26.6717682 36.5C25.5821253 36.5 24.6987952 35.6166699 24.6987952 34.527027 24.6987952 33.4373841 25.5821253 32.5540541 26.6717682 32.5540541L53.8687576 32.5540541C53.9636886 32.5540541 54.0570537 32.5607586 54.1484051 32.5737201 54.6873749 32.5610018 55.255342 32.5540541 55.8417306 32.5540541L56.1429719 32.5546676C59.537307 32.5685239 62.2409639 32.8153291 62.2409639 33.1177606 62.2409639 33.215264 61.9599442 33.3069855 61.4653602 33.3869831 61.932083 33.6879289 62.2409639 34.2123331 62.2409639 34.8088803 62.2409639 35.7428599 61.4838238 36.5 60.5498442 36.5L26.6717682 36.5zM26.6717682 47.3513514C25.5821253 47.3513514 24.6987952 46.4680213 24.6987952 45.3783784 24.6987952 44.2887355 25.5821253 43.4054054 26.6717682 43.4054054L53.8687576 43.4054054C53.9636886 43.4054054 54.0570537 43.41211 54.1484051 43.4250714 54.6873749 43.4123532 55.255342 43.4054054 55.8417306 43.4054054L56.1429719 43.406019C59.537307 43.4198752 62.2409639 43.6666805 62.2409639 43.969112 62.2409639 44.0666153 61.9599442 44.1583369 61.4653602 44.2383345 61.932083 44.5392803 62.2409639 45.0636845 62.2409639 45.6602317 62.2409639 46.5942113 61.4838238 47.3513514 60.5498442 47.3513514L26.6717682 47.3513514zM26.6717682 58.2027027C25.5821253 58.2027027 24.6987952 57.3193726 24.6987952 56.2297297 24.6987952 55.1400868 25.5821253 54.2567568 26.6717682 54.2567568L53.8687576 54.2567568C53.9636886 54.2567568 54.0570537 54.2634613 54.1484051 54.2764228 54.6873749 54.2637045 55.255342 54.2567568 55.8417306 54.2567568L56.1429719 54.2573703C59.537307 54.2712266 62.2409639 54.5180318 62.2409639 54.8204633 62.2409639 54.9179667 61.9599442 55.0096882 61.4653602 55.0896858 61.932083 55.3906316 62.2409639 55.9150358 62.2409639 56.511583 62.2409639 57.4455626 61.4838238 58.2027027 60.5498442 58.2027027L26.6717682 58.2027027z"/>
      </g>
      <g transform="translate(716.829 .34)">
        <path fill="#FFF" d="M20.1891892,64.6412214 L20.1891892,-1.13686838e-13 L61.1283784,-1.13686838e-13 C65.7742873,-1.13686838e-13 69.5405405,3.74235266 69.5405405,8.35877863 L69.5405405,8.35877863 L69.5405405,64.6412214 L20.1891892,64.6412214 Z"/>
        <path fill="#EBEBEB" d="M25.2364865,73 C49.4320067,73 63.0784031,73 66.1756757,73 C70.8215846,73 74.5878378,69.2576473 74.5878378,64.6412214 C68.231982,64.6412214 54.5855856,64.6412214 33.6486486,64.6412214"/>
        <path fill="#EBEBEB" d="M33.6486486,73 C57.8441689,73 71.4905653,73 74.5878378,73 C79.2337467,73 83,69.2576473 83,64.6412214 C76.6441441,64.6412214 62.9977477,64.6412214 42.0608108,64.6412214"/>
        <path fill="#FFF" d="M16.8243243,64.6412214 C16.8243243,69.2576473 20.5905776,73 25.2364865,73 C29.8823954,73 33.6486486,69.2576473 33.6486486,64.6412214 C33.6486486,60.0247954 29.8823954,56.2824427 25.2364865,56.2824427"/>
        <rect width="5.608" height="64.641" x="16.824" fill="#FFF"/>
        <path fill="#EBEBEB" d="M26.6260574 25.0763359C25.5488913 25.0763359 24.6756757 24.2031203 24.6756757 23.1259542 24.6756757 22.0487881 25.5488913 21.1755725 26.6260574 21.1755725L54.360122 21.1755725C54.4490813 21.1755725 54.5366496 21.1815283 54.6224498 21.1930629 55.1605142 21.1821744 55.7265155 21.1755725 56.3105037 21.1755725L56.6080508 21.1761459C60.0599612 21.189478 62.8108108 21.4336116 62.8108108 21.7328244 62.8108108 21.8281828 62.5314123 21.9179469 62.0389659 21.9964286 62.5031757 22.2925828 62.8108108 22.8126555 62.8108108 23.4045802 62.8108108 24.3278653 62.0623403 25.0763359 61.1390551 25.0763359L26.6260574 25.0763359zM26.6260574 36.221374C25.5488913 36.221374 24.6756757 35.3481584 24.6756757 34.2709924 24.6756757 33.1938263 25.5488913 32.3206107 26.6260574 32.3206107L54.360122 32.3206107C54.4490813 32.3206107 54.5366496 32.3265665 54.6224498 32.3381011 55.1605142 32.3272126 55.7265155 32.3206107 56.3105037 32.3206107L56.6080508 32.3211841C60.0599612 32.3345162 62.8108108 32.5786498 62.8108108 32.8778626 62.8108108 32.973221 62.5314123 33.062985 62.0389659 33.1414668 62.5031757 33.437621 62.8108108 33.9576936 62.8108108 34.5496183 62.8108108 35.4729035 62.0623403 36.221374 61.1390551 36.221374L26.6260574 36.221374zM26.6260574 47.3664122C25.5488913 47.3664122 24.6756757 46.4931966 24.6756757 45.4160305 24.6756757 44.3388645 25.5488913 43.4656489 26.6260574 43.4656489L54.360122 43.4656489C54.4490813 43.4656489 54.5366496 43.4716046 54.6224498 43.4831392 55.1605142 43.4722507 55.7265155 43.4656489 56.3105037 43.4656489L56.6080508 43.4662223C60.0599612 43.4795544 62.8108108 43.723688 62.8108108 44.0229008 62.8108108 44.1182591 62.5314123 44.2080232 62.0389659 44.2865049 62.5031757 44.5826592 62.8108108 45.1027318 62.8108108 45.6946565 62.8108108 46.6179417 62.0623403 47.3664122 61.1390551 47.3664122L26.6260574 47.3664122zM26.6260574 58.5114504C25.5488913 58.5114504 24.6756757 57.6382348 24.6756757 56.5610687 24.6756757 55.4839026 25.5488913 54.610687 26.6260574 54.610687L54.360122 54.610687C54.4490813 54.610687 54.5366496 54.6166428 54.6224498 54.6281774 55.1605142 54.6172889 55.7265155 54.610687 56.3105037 54.610687L56.6080508 54.6112604C60.0599612 54.6245926 62.8108108 54.8687261 62.8108108 55.1679389 62.8108108 55.2632973 62.5314123 55.3530614 62.0389659 55.4315431 62.5031757 55.7276973 62.8108108 56.24777 62.8108108 56.8396947 62.8108108 57.7629798 62.0623403 58.5114504 61.1390551 58.5114504L26.6260574 58.5114504z"/>
      </g>
      <g transform="translate(716.905 278.808)">
        <path fill="#FFF" d="M0,8.35877863 C24.1955202,8.35877863 37.8419166,8.35877863 40.9391892,8.35877863 C45.5850981,8.35877863 49.3513514,4.61642596 49.3513514,0 C42.9954955,0 29.3490991,0 8.41216216,0" transform="rotate(180 24.676 4.18)"/>
        <path fill="#FFF" d="M20.1891892,64.6412214 L20.1891892,0 L61.1283784,0 C65.7742873,0 69.5405405,3.74235266 69.5405405,8.35877863 L69.5405405,8.35877863 L69.5405405,64.6412214 L20.1891892,64.6412214 Z"/>
        <rect width="5.608" height="64.641" x="16.824" fill="#FFF"/>
        <path fill="#EBEBEB" d="M16.8243243 8.35877863C16.8243243 3.74235266 13.058071 0 8.41216216 0 3.76625329 0 0 3.74235266 0 8.35877863M26.6260574 13.9312977C25.5488913 13.9312977 24.6756757 13.0580821 24.6756757 11.980916 24.6756757 10.90375 25.5488913 10.0305344 26.6260574 10.0305344L54.360122 10.0305344C54.4490813 10.0305344 54.5366496 10.0364901 54.6224498 10.0480247 55.1605142 10.0371362 55.7265155 10.0305344 56.3105037 10.0305344L56.6080508 10.0311078C60.0599612 10.0444399 62.8108108 10.2885735 62.8108108 10.5877863 62.8108108 10.6831446 62.5314123 10.7729087 62.0389659 10.8513904 62.5031757 11.1475447 62.8108108 11.6676173 62.8108108 12.259542 62.8108108 13.1828272 62.0623403 13.9312977 61.1390551 13.9312977L26.6260574 13.9312977zM26.6260574 25.0763359C25.5488913 25.0763359 24.6756757 24.2031203 24.6756757 23.1259542 24.6756757 22.0487881 25.5488913 21.1755725 26.6260574 21.1755725L54.360122 21.1755725C54.4490813 21.1755725 54.5366496 21.1815283 54.6224498 21.1930629 55.1605142 21.1821744 55.7265155 21.1755725 56.3105037 21.1755725L56.6080508 21.1761459C60.0599612 21.189478 62.8108108 21.4336116 62.8108108 21.7328244 62.8108108 21.8281828 62.5314123 21.9179469 62.0389659 21.9964286 62.5031757 22.2925828 62.8108108 22.8126555 62.8108108 23.4045802 62.8108108 24.3278653 62.0623403 25.0763359 61.1390551 25.0763359L26.6260574 25.0763359zM26.6260574 36.221374C25.5488913 36.221374 24.6756757 35.3481584 24.6756757 34.2709924 24.6756757 33.1938263 25.5488913 32.3206107 26.6260574 32.3206107L54.360122 32.3206107C54.4490813 32.3206107 54.5366496 32.3265665 54.6224498 32.3381011 55.1605142 32.3272126 55.7265155 32.3206107 56.3105037 32.3206107L56.6080508 32.3211841C60.0599612 32.3345162 62.8108108 32.5786498 62.8108108 32.8778626 62.8108108 32.973221 62.5314123 33.062985 62.0389659 33.1414668 62.5031757 33.437621 62.8108108 33.9576936 62.8108108 34.5496183 62.8108108 35.4729035 62.0623403 36.221374 61.1390551 36.221374L26.6260574 36.221374z"/>
      </g>
      <g transform="translate(409.32 278.403)">
        <path fill="#FFF" d="M0,8.35877863 C24.1955202,8.35877863 37.8419166,8.35877863 40.9391892,8.35877863 C45.5850981,8.35877863 49.3513514,4.61642596 49.3513514,0 C42.9954955,0 29.3490991,0 8.41216216,0" transform="rotate(180 24.676 4.18)"/>
        <path fill="#FFF" d="M20.1891892,64.6412214 L20.1891892,5.68434189e-14 L61.1283784,5.68434189e-14 C65.7742873,5.68434189e-14 69.5405405,3.74235266 69.5405405,8.35877863 L69.5405405,8.35877863 L69.5405405,64.6412214 L20.1891892,64.6412214 Z"/>
        <path fill="#EBEBEB" d="M25.2364865,73 C49.4320067,73 63.0784031,73 66.1756757,73 C70.8215846,73 74.5878378,69.2576473 74.5878378,64.6412214 C68.231982,64.6412214 54.5855856,64.6412214 33.6486486,64.6412214"/>
        <path fill="#EBEBEB" d="M33.6486486,73 C57.8441689,73 71.4905653,73 74.5878378,73 C79.2337467,73 83,69.2576473 83,64.6412214 C76.6441441,64.6412214 62.9977477,64.6412214 42.0608108,64.6412214"/>
        <path fill="#FFF" d="M16.8243243,64.6412214 C16.8243243,69.2576473 20.5905776,73 25.2364865,73 C29.8823954,73 33.6486486,69.2576473 33.6486486,64.6412214 C33.6486486,60.0247954 29.8823954,56.2824427 25.2364865,56.2824427"/>
        <rect width="5.608" height="64.641" x="16.824" fill="#FFF"/>
        <path fill="#EBEBEB" d="M16.8243243 8.35877863C16.8243243 3.74235266 13.058071 0 8.41216216 0 3.76625329 0 0 3.74235266 0 8.35877863M26.6260574 13.9312977C25.5488913 13.9312977 24.6756757 13.0580821 24.6756757 11.980916 24.6756757 10.90375 25.5488913 10.0305344 26.6260574 10.0305344L54.360122 10.0305344C54.4490813 10.0305344 54.5366496 10.0364901 54.6224498 10.0480247 55.1605142 10.0371362 55.7265155 10.0305344 56.3105037 10.0305344L56.6080508 10.0311078C60.0599612 10.0444399 62.8108108 10.2885735 62.8108108 10.5877863 62.8108108 10.6831446 62.5314123 10.7729087 62.0389659 10.8513904 62.5031757 11.1475447 62.8108108 11.6676173 62.8108108 12.259542 62.8108108 13.1828272 62.0623403 13.9312977 61.1390551 13.9312977L26.6260574 13.9312977zM26.6260574 25.0763359C25.5488913 25.0763359 24.6756757 24.2031203 24.6756757 23.1259542 24.6756757 22.0487881 25.5488913 21.1755725 26.6260574 21.1755725L54.360122 21.1755725C54.4490813 21.1755725 54.5366496 21.1815283 54.6224498 21.1930629 55.1605142 21.1821744 55.7265155 21.1755725 56.3105037 21.1755725L56.6080508 21.1761459C60.0599612 21.189478 62.8108108 21.4336116 62.8108108 21.7328244 62.8108108 21.8281828 62.5314123 21.9179469 62.0389659 21.9964286 62.5031757 22.2925828 62.8108108 22.8126555 62.8108108 23.4045802 62.8108108 24.3278653 62.0623403 25.0763359 61.1390551 25.0763359L26.6260574 25.0763359zM26.6260574 36.221374C25.5488913 36.221374 24.6756757 35.3481584 24.6756757 34.2709924 24.6756757 33.1938263 25.5488913 32.3206107 26.6260574 32.3206107L54.360122 32.3206107C54.4490813 32.3206107 54.5366496 32.3265665 54.6224498 32.3381011 55.1605142 32.3272126 55.7265155 32.3206107 56.3105037 32.3206107L56.6080508 32.3211841C60.0599612 32.3345162 62.8108108 32.5786498 62.8108108 32.8778626 62.8108108 32.973221 62.5314123 33.062985 62.0389659 33.1414668 62.5031757 33.437621 62.8108108 33.9576936 62.8108108 34.5496183 62.8108108 35.4729035 62.0623403 36.221374 61.1390551 36.221374L26.6260574 36.221374zM26.6260574 47.3664122C25.5488913 47.3664122 24.6756757 46.4931966 24.6756757 45.4160305 24.6756757 44.3388645 25.5488913 43.4656489 26.6260574 43.4656489L54.360122 43.4656489C54.4490813 43.4656489 54.5366496 43.4716046 54.6224498 43.4831392 55.1605142 43.4722507 55.7265155 43.4656489 56.3105037 43.4656489L56.6080508 43.4662223C60.0599612 43.4795544 62.8108108 43.723688 62.8108108 44.0229008 62.8108108 44.1182591 62.5314123 44.2080232 62.0389659 44.2865049 62.5031757 44.5826592 62.8108108 45.1027318 62.8108108 45.6946565 62.8108108 46.6179417 62.0623403 47.3664122 61.1390551 47.3664122L26.6260574 47.3664122zM26.6260574 58.5114504C25.5488913 58.5114504 24.6756757 57.6382348 24.6756757 56.5610687 24.6756757 55.4839026 25.5488913 54.610687 26.6260574 54.610687L54.360122 54.610687C54.4490813 54.610687 54.5366496 54.6166428 54.6224498 54.6281774 55.1605142 54.6172889 55.7265155 54.610687 56.3105037 54.610687L56.6080508 54.6112604C60.0599612 54.6245926 62.8108108 54.8687261 62.8108108 55.1679389 62.8108108 55.2632973 62.5314123 55.3530614 62.0389659 55.4315431 62.5031757 55.7276973 62.8108108 56.24777 62.8108108 56.8396947 62.8108108 57.7629798 62.0623403 58.5114504 61.1390551 58.5114504L26.6260574 58.5114504z"/>
      </g>
      <g transform="translate(715.975 93.743)">
        <path fill="#FFF" d="M0,8.35877863 C24.1955202,8.35877863 37.8419166,8.35877863 40.9391892,8.35877863 C45.5850981,8.35877863 49.3513514,4.61642596 49.3513514,0 C42.9954955,0 29.3490991,0 8.41216216,0" transform="rotate(180 24.676 4.18)"/>
        <path fill="#FFF" d="M20.1891892,64.6412214 L20.1891892,0 L61.1283784,0 C65.7742873,0 69.5405405,3.74235266 69.5405405,8.35877863 L69.5405405,8.35877863 L69.5405405,64.6412214 L20.1891892,64.6412214 Z"/>
        <path fill="#EBEBEB" d="M25.2364865,73 C49.4320067,73 63.0784031,73 66.1756757,73 C70.8215846,73 74.5878378,69.2576473 74.5878378,64.6412214 C68.231982,64.6412214 54.5855856,64.6412214 33.6486486,64.6412214"/>
        <path fill="#EBEBEB" d="M33.6486486,73 C57.8441689,73 71.4905653,73 74.5878378,73 C79.2337467,73 83,69.2576473 83,64.6412214 C76.6441441,64.6412214 62.9977477,64.6412214 42.0608108,64.6412214"/>
        <path fill="#FFF" d="M16.8243243,64.6412214 C16.8243243,69.2576473 20.5905776,73 25.2364865,73 C29.8823954,73 33.6486486,69.2576473 33.6486486,64.6412214 C33.6486486,60.0247954 29.8823954,56.2824427 25.2364865,56.2824427"/>
        <rect width="5.608" height="64.641" x="16.824" fill="#FFF"/>
        <path fill="#EBEBEB" d="M16.8243243 8.35877863C16.8243243 3.74235266 13.058071 0 8.41216216 0 3.76625329 0 0 3.74235266 0 8.35877863M26.6260574 13.9312977C25.5488913 13.9312977 24.6756757 13.0580821 24.6756757 11.980916 24.6756757 10.90375 25.5488913 10.0305344 26.6260574 10.0305344L54.360122 10.0305344C54.4490813 10.0305344 54.5366496 10.0364901 54.6224498 10.0480247 55.1605142 10.0371362 55.7265155 10.0305344 56.3105037 10.0305344L56.6080508 10.0311078C60.0599612 10.0444399 62.8108108 10.2885735 62.8108108 10.5877863 62.8108108 10.6831446 62.5314123 10.7729087 62.0389659 10.8513904 62.5031757 11.1475447 62.8108108 11.6676173 62.8108108 12.259542 62.8108108 13.1828272 62.0623403 13.9312977 61.1390551 13.9312977L26.6260574 13.9312977zM26.6260574 25.0763359C25.5488913 25.0763359 24.6756757 24.2031203 24.6756757 23.1259542 24.6756757 22.0487881 25.5488913 21.1755725 26.6260574 21.1755725L54.360122 21.1755725C54.4490813 21.1755725 54.5366496 21.1815283 54.6224498 21.1930629 55.1605142 21.1821744 55.7265155 21.1755725 56.3105037 21.1755725L56.6080508 21.1761459C60.0599612 21.189478 62.8108108 21.4336116 62.8108108 21.7328244 62.8108108 21.8281828 62.5314123 21.9179469 62.0389659 21.9964286 62.5031757 22.2925828 62.8108108 22.8126555 62.8108108 23.4045802 62.8108108 24.3278653 62.0623403 25.0763359 61.1390551 25.0763359L26.6260574 25.0763359zM26.6260574 36.221374C25.5488913 36.221374 24.6756757 35.3481584 24.6756757 34.2709924 24.6756757 33.1938263 25.5488913 32.3206107 26.6260574 32.3206107L54.360122 32.3206107C54.4490813 32.3206107 54.5366496 32.3265665 54.6224498 32.3381011 55.1605142 32.3272126 55.7265155 32.3206107 56.3105037 32.3206107L56.6080508 32.3211841C60.0599612 32.3345162 62.8108108 32.5786498 62.8108108 32.8778626 62.8108108 32.973221 62.5314123 33.062985 62.0389659 33.1414668 62.5031757 33.437621 62.8108108 33.9576936 62.8108108 34.5496183 62.8108108 35.4729035 62.0623403 36.221374 61.1390551 36.221374L26.6260574 36.221374zM26.6260574 47.3664122C25.5488913 47.3664122 24.6756757 46.4931966 24.6756757 45.4160305 24.6756757 44.3388645 25.5488913 43.4656489 26.6260574 43.4656489L54.360122 43.4656489C54.4490813 43.4656489 54.5366496 43.4716046 54.6224498 43.4831392 55.1605142 43.4722507 55.7265155 43.4656489 56.3105037 43.4656489L56.6080508 43.4662223C60.0599612 43.4795544 62.8108108 43.723688 62.8108108 44.0229008 62.8108108 44.1182591 62.5314123 44.2080232 62.0389659 44.2865049 62.5031757 44.5826592 62.8108108 45.1027318 62.8108108 45.6946565 62.8108108 46.6179417 62.0623403 47.3664122 61.1390551 47.3664122L26.6260574 47.3664122zM26.6260574 58.5114504C25.5488913 58.5114504 24.6756757 57.6382348 24.6756757 56.5610687 24.6756757 55.4839026 25.5488913 54.610687 26.6260574 54.610687L54.360122 54.610687C54.4490813 54.610687 54.5366496 54.6166428 54.6224498 54.6281774 55.1605142 54.6172889 55.7265155 54.610687 56.3105037 54.610687L56.6080508 54.6112604C60.0599612 54.6245926 62.8108108 54.8687261 62.8108108 55.1679389 62.8108108 55.2632973 62.5314123 55.3530614 62.0389659 55.4315431 62.5031757 55.7276973 62.8108108 56.24777 62.8108108 56.8396947 62.8108108 57.7629798 62.0623403 58.5114504 61.1390551 58.5114504L26.6260574 58.5114504z"/>
      </g>
      <g transform="translate(410.321 92.82)">
        <path fill="#FFF" d="M20.1891892,64.6412214 L20.1891892,-1.13686838e-13 L61.1283784,-1.13686838e-13 C65.7742873,-1.13686838e-13 69.5405405,3.74235266 69.5405405,8.35877863 L69.5405405,8.35877863 L69.5405405,64.6412214 L20.1891892,64.6412214 Z"/>
        <path fill="#EBEBEB" d="M25.2364865,73 C49.4320067,73 63.0784031,73 66.1756757,73 C70.8215846,73 74.5878378,69.2576473 74.5878378,64.6412214 C68.231982,64.6412214 54.5855856,64.6412214 33.6486486,64.6412214"/>
        <path fill="#EBEBEB" d="M33.6486486,73 C57.8441689,73 71.4905653,73 74.5878378,73 C79.2337467,73 83,69.2576473 83,64.6412214 C76.6441441,64.6412214 62.9977477,64.6412214 42.0608108,64.6412214"/>
        <path fill="#FFF" d="M16.8243243,64.6412214 C16.8243243,69.2576473 20.5905776,73 25.2364865,73 C29.8823954,73 33.6486486,69.2576473 33.6486486,64.6412214 C33.6486486,60.0247954 29.8823954,56.2824427 25.2364865,56.2824427"/>
        <rect width="5.608" height="64.641" x="16.824" fill="#FFF"/>
        <path fill="#EBEBEB" d="M26.6260574 13.9312977C25.5488913 13.9312977 24.6756757 13.0580821 24.6756757 11.980916 24.6756757 10.90375 25.5488913 10.0305344 26.6260574 10.0305344L54.360122 10.0305344C54.4490813 10.0305344 54.5366496 10.0364901 54.6224498 10.0480247 55.1605142 10.0371362 55.7265155 10.0305344 56.3105037 10.0305344L56.6080508 10.0311078C60.0599612 10.0444399 62.8108108 10.2885735 62.8108108 10.5877863 62.8108108 10.6831446 62.5314123 10.7729087 62.0389659 10.8513904 62.5031757 11.1475447 62.8108108 11.6676173 62.8108108 12.259542 62.8108108 13.1828272 62.0623403 13.9312977 61.1390551 13.9312977L26.6260574 13.9312977zM26.6260574 25.0763359C25.5488913 25.0763359 24.6756757 24.2031203 24.6756757 23.1259542 24.6756757 22.0487881 25.5488913 21.1755725 26.6260574 21.1755725L54.360122 21.1755725C54.4490813 21.1755725 54.5366496 21.1815283 54.6224498 21.1930629 55.1605142 21.1821744 55.7265155 21.1755725 56.3105037 21.1755725L56.6080508 21.1761459C60.0599612 21.189478 62.8108108 21.4336116 62.8108108 21.7328244 62.8108108 21.8281828 62.5314123 21.9179469 62.0389659 21.9964286 62.5031757 22.2925828 62.8108108 22.8126555 62.8108108 23.4045802 62.8108108 24.3278653 62.0623403 25.0763359 61.1390551 25.0763359L26.6260574 25.0763359zM26.6260574 36.221374C25.5488913 36.221374 24.6756757 35.3481584 24.6756757 34.2709924 24.6756757 33.1938263 25.5488913 32.3206107 26.6260574 32.3206107L54.360122 32.3206107C54.4490813 32.3206107 54.5366496 32.3265665 54.6224498 32.3381011 55.1605142 32.3272126 55.7265155 32.3206107 56.3105037 32.3206107L56.6080508 32.3211841C60.0599612 32.3345162 62.8108108 32.5786498 62.8108108 32.8778626 62.8108108 32.973221 62.5314123 33.062985 62.0389659 33.1414668 62.5031757 33.437621 62.8108108 33.9576936 62.8108108 34.5496183 62.8108108 35.4729035 62.0623403 36.221374 61.1390551 36.221374L26.6260574 36.221374zM26.6260574 47.3664122C25.5488913 47.3664122 24.6756757 46.4931966 24.6756757 45.4160305 24.6756757 44.3388645 25.5488913 43.4656489 26.6260574 43.4656489L54.360122 43.4656489C54.4490813 43.4656489 54.5366496 43.4716046 54.6224498 43.4831392 55.1605142 43.4722507 55.7265155 43.4656489 56.3105037 43.4656489L56.6080508 43.4662223C60.0599612 43.4795544 62.8108108 43.723688 62.8108108 44.0229008 62.8108108 44.1182591 62.5314123 44.2080232 62.0389659 44.2865049 62.5031757 44.5826592 62.8108108 45.1027318 62.8108108 45.6946565 62.8108108 46.6179417 62.0623403 47.3664122 61.1390551 47.3664122L26.6260574 47.3664122zM26.6260574 58.5114504C25.5488913 58.5114504 24.6756757 57.6382348 24.6756757 56.5610687 24.6756757 55.4839026 25.5488913 54.610687 26.6260574 54.610687L54.360122 54.610687C54.4490813 54.610687 54.5366496 54.6166428 54.6224498 54.6281774 55.1605142 54.6172889 55.7265155 54.610687 56.3105037 54.610687L56.6080508 54.6112604C60.0599612 54.6245926 62.8108108 54.8687261 62.8108108 55.1679389 62.8108108 55.2632973 62.5314123 55.3530614 62.0389659 55.4315431 62.5031757 55.7276973 62.8108108 56.24777 62.8108108 56.8396947 62.8108108 57.7629798 62.0623403 58.5114504 61.1390551 58.5114504L26.6260574 58.5114504z"/>
      </g>
      <g transform="translate(410.397 371.29)">
        <path fill="#FFF" d="M0,8.35877863 C24.1955202,8.35877863 37.8419166,8.35877863 40.9391892,8.35877863 C45.5850981,8.35877863 49.3513514,4.61642596 49.3513514,0 C42.9954955,0 29.3490991,0 8.41216216,0" transform="rotate(180 24.676 4.18)"/>
        <path fill="#FFF" d="M20.1891892,64.6412214 L20.1891892,1.13686838e-13 L61.1283784,1.13686838e-13 C65.7742873,1.13686838e-13 69.5405405,3.74235266 69.5405405,8.35877863 L69.5405405,8.35877863 L69.5405405,64.6412214 L20.1891892,64.6412214 Z"/>
        <rect width="5.608" height="64.641" x="16.824" fill="#FFF"/>
        <path fill="#EBEBEB" d="M16.8243243 8.35877863C16.8243243 3.74235266 13.058071 0 8.41216216 0 3.76625329 0 0 3.74235266 0 8.35877863M26.6260574 13.9312977C25.5488913 13.9312977 24.6756757 13.0580821 24.6756757 11.980916 24.6756757 10.90375 25.5488913 10.0305344 26.6260574 10.0305344L54.360122 10.0305344C54.4490813 10.0305344 54.5366496 10.0364901 54.6224498 10.0480247 55.1605142 10.0371362 55.7265155 10.0305344 56.3105037 10.0305344L56.6080508 10.0311078C60.0599612 10.0444399 62.8108108 10.2885735 62.8108108 10.5877863 62.8108108 10.6831446 62.5314123 10.7729087 62.0389659 10.8513904 62.5031757 11.1475447 62.8108108 11.6676173 62.8108108 12.259542 62.8108108 13.1828272 62.0623403 13.9312977 61.1390551 13.9312977L26.6260574 13.9312977zM26.6260574 25.0763359C25.5488913 25.0763359 24.6756757 24.2031203 24.6756757 23.1259542 24.6756757 22.0487881 25.5488913 21.1755725 26.6260574 21.1755725L54.360122 21.1755725C54.4490813 21.1755725 54.5366496 21.1815283 54.6224498 21.1930629 55.1605142 21.1821744 55.7265155 21.1755725 56.3105037 21.1755725L56.6080508 21.1761459C60.0599612 21.189478 62.8108108 21.4336116 62.8108108 21.7328244 62.8108108 21.8281828 62.5314123 21.9179469 62.0389659 21.9964286 62.5031757 22.2925828 62.8108108 22.8126555 62.8108108 23.4045802 62.8108108 24.3278653 62.0623403 25.0763359 61.1390551 25.0763359L26.6260574 25.0763359z"/>
      </g>
      <g transform="translate(409.467 186.224)">
        <path fill="#FFF" d="M0,8.35877863 C24.1955202,8.35877863 37.8419166,8.35877863 40.9391892,8.35877863 C45.5850981,8.35877863 49.3513514,4.61642596 49.3513514,0 C42.9954955,0 29.3490991,0 8.41216216,0" transform="rotate(180 24.676 4.18)"/>
        <path fill="#FFF" d="M20.1891892,64.6412214 L20.1891892,1.13686838e-13 L61.1283784,1.13686838e-13 C65.7742873,1.13686838e-13 69.5405405,3.74235266 69.5405405,8.35877863 L69.5405405,8.35877863 L69.5405405,64.6412214 L20.1891892,64.6412214 Z"/>
        <path fill="#EBEBEB" d="M25.2364865,73 C49.4320067,73 63.0784031,73 66.1756757,73 C70.8215846,73 74.5878378,69.2576473 74.5878378,64.6412214 C68.231982,64.6412214 54.5855856,64.6412214 33.6486486,64.6412214"/>
        <path fill="#EBEBEB" d="M33.6486486,73 C57.8441689,73 71.4905653,73 74.5878378,73 C79.2337467,73 83,69.2576473 83,64.6412214 C76.6441441,64.6412214 62.9977477,64.6412214 42.0608108,64.6412214"/>
        <path fill="#FFF" d="M16.8243243,64.6412214 C16.8243243,69.2576473 20.5905776,73 25.2364865,73 C29.8823954,73 33.6486486,69.2576473 33.6486486,64.6412214 C33.6486486,60.0247954 29.8823954,56.2824427 25.2364865,56.2824427"/>
        <rect width="5.608" height="64.641" x="16.824" fill="#FFF"/>
        <path fill="#EBEBEB" d="M16.8243243 8.35877863C16.8243243 3.74235266 13.058071 0 8.41216216 0 3.76625329 0 0 3.74235266 0 8.35877863M26.6260574 13.9312977C25.5488913 13.9312977 24.6756757 13.0580821 24.6756757 11.980916 24.6756757 10.90375 25.5488913 10.0305344 26.6260574 10.0305344L54.360122 10.0305344C54.4490813 10.0305344 54.5366496 10.0364901 54.6224498 10.0480247 55.1605142 10.0371362 55.7265155 10.0305344 56.3105037 10.0305344L56.6080508 10.0311078C60.0599612 10.0444399 62.8108108 10.2885735 62.8108108 10.5877863 62.8108108 10.6831446 62.5314123 10.7729087 62.0389659 10.8513904 62.5031757 11.1475447 62.8108108 11.6676173 62.8108108 12.259542 62.8108108 13.1828272 62.0623403 13.9312977 61.1390551 13.9312977L26.6260574 13.9312977zM26.6260574 25.0763359C25.5488913 25.0763359 24.6756757 24.2031203 24.6756757 23.1259542 24.6756757 22.0487881 25.5488913 21.1755725 26.6260574 21.1755725L54.360122 21.1755725C54.4490813 21.1755725 54.5366496 21.1815283 54.6224498 21.1930629 55.1605142 21.1821744 55.7265155 21.1755725 56.3105037 21.1755725L56.6080508 21.1761459C60.0599612 21.189478 62.8108108 21.4336116 62.8108108 21.7328244 62.8108108 21.8281828 62.5314123 21.9179469 62.0389659 21.9964286 62.5031757 22.2925828 62.8108108 22.8126555 62.8108108 23.4045802 62.8108108 24.3278653 62.0623403 25.0763359 61.1390551 25.0763359L26.6260574 25.0763359zM26.6260574 36.221374C25.5488913 36.221374 24.6756757 35.3481584 24.6756757 34.2709924 24.6756757 33.1938263 25.5488913 32.3206107 26.6260574 32.3206107L54.360122 32.3206107C54.4490813 32.3206107 54.5366496 32.3265665 54.6224498 32.3381011 55.1605142 32.3272126 55.7265155 32.3206107 56.3105037 32.3206107L56.6080508 32.3211841C60.0599612 32.3345162 62.8108108 32.5786498 62.8108108 32.8778626 62.8108108 32.973221 62.5314123 33.062985 62.0389659 33.1414668 62.5031757 33.437621 62.8108108 33.9576936 62.8108108 34.5496183 62.8108108 35.4729035 62.0623403 36.221374 61.1390551 36.221374L26.6260574 36.221374zM26.6260574 47.3664122C25.5488913 47.3664122 24.6756757 46.4931966 24.6756757 45.4160305 24.6756757 44.3388645 25.5488913 43.4656489 26.6260574 43.4656489L54.360122 43.4656489C54.4490813 43.4656489 54.5366496 43.4716046 54.6224498 43.4831392 55.1605142 43.4722507 55.7265155 43.4656489 56.3105037 43.4656489L56.6080508 43.4662223C60.0599612 43.4795544 62.8108108 43.723688 62.8108108 44.0229008 62.8108108 44.1182591 62.5314123 44.2080232 62.0389659 44.2865049 62.5031757 44.5826592 62.8108108 45.1027318 62.8108108 45.6946565 62.8108108 46.6179417 62.0623403 47.3664122 61.1390551 47.3664122L26.6260574 47.3664122zM26.6260574 58.5114504C25.5488913 58.5114504 24.6756757 57.6382348 24.6756757 56.5610687 24.6756757 55.4839026 25.5488913 54.610687 26.6260574 54.610687L54.360122 54.610687C54.4490813 54.610687 54.5366496 54.6166428 54.6224498 54.6281774 55.1605142 54.6172889 55.7265155 54.610687 56.3105037 54.610687L56.6080508 54.6112604C60.0599612 54.6245926 62.8108108 54.8687261 62.8108108 55.1679389 62.8108108 55.2632973 62.5314123 55.3530614 62.0389659 55.4315431 62.5031757 55.7276973 62.8108108 56.24777 62.8108108 56.8396947 62.8108108 57.7629798 62.0623403 58.5114504 61.1390551 58.5114504L26.6260574 58.5114504z"/>
      </g>
      <g transform="translate(613.507 1.107)">
        <path fill="#FFF" d="M20.1891892,64.6412214 L20.1891892,0 L61.1283784,0 C65.7742873,0 69.5405405,3.74235266 69.5405405,8.35877863 L69.5405405,8.35877863 L69.5405405,64.6412214 L20.1891892,64.6412214 Z"/>
        <path fill="#EBEBEB" d="M25.2364865,73 C49.4320067,73 63.0784031,73 66.1756757,73 C70.8215846,73 74.5878378,69.2576473 74.5878378,64.6412214 C68.231982,64.6412214 54.5855856,64.6412214 33.6486486,64.6412214"/>
        <path fill="#EBEBEB" d="M33.6486486,73 C57.8441689,73 71.4905653,73 74.5878378,73 C79.2337467,73 83,69.2576473 83,64.6412214 C76.6441441,64.6412214 62.9977477,64.6412214 42.0608108,64.6412214"/>
        <path fill="#FFF" d="M16.8243243,64.6412214 C16.8243243,69.2576473 20.5905776,73 25.2364865,73 C29.8823954,73 33.6486486,69.2576473 33.6486486,64.6412214 C33.6486486,60.0247954 29.8823954,56.2824427 25.2364865,56.2824427"/>
        <rect width="5.608" height="64.641" x="16.824" fill="#FFF"/>
        <path fill="#EBEBEB" d="M26.6260574,58.5114504 C25.5488913,58.5114504 24.6756757,57.6382348 24.6756757,56.5610687 C24.6756757,55.4839026 25.5488913,54.610687 26.6260574,54.610687 L54.360122,54.610687 C54.4490813,54.610687 54.5366496,54.6166428 54.6224498,54.6281774 C55.1605142,54.6172889 55.7265155,54.610687 56.3105037,54.610687 L56.6080508,54.6112604 C60.0599612,54.6245926 62.8108108,54.8687261 62.8108108,55.1679389 C62.8108108,55.2632973 62.5314123,55.3530614 62.0389659,55.4315431 C62.5031757,55.7276973 62.8108108,56.24777 62.8108108,56.8396947 C62.8108108,57.7629798 62.0623403,58.5114504 61.1390551,58.5114504 L26.6260574,58.5114504 Z"/>
      </g>
      <g transform="translate(613.324 278.61)">
        <path fill="#FFF" d="M0,8.35877863 C24.1955202,8.35877863 37.8419166,8.35877863 40.9391892,8.35877863 C45.5850981,8.35877863 49.3513514,4.61642596 49.3513514,0 C42.9954955,0 29.3490991,0 8.41216216,0" transform="rotate(180 24.676 4.18)"/>
        <path fill="#FFF" d="M20.1891892,64.6412214 L20.1891892,0 L61.1283784,0 C65.7742873,0 69.5405405,3.74235266 69.5405405,8.35877863 L69.5405405,8.35877863 L69.5405405,64.6412214 L20.1891892,64.6412214 Z"/>
        <path fill="#FFF" d="M16.8243243,64.6412214 C16.8243243,69.2576473 20.5905776,73 25.2364865,73 C29.8823954,73 33.6486486,69.2576473 33.6486486,64.6412214 C33.6486486,60.0247954 29.8823954,56.2824427 25.2364865,56.2824427"/>
        <rect width="5.608" height="64.641" x="16.824" fill="#FFF"/>
        <path fill="#EBEBEB" d="M16.8243243 8.35877863C16.8243243 3.74235266 13.058071 0 8.41216216 0 3.76625329 0 0 3.74235266 0 8.35877863M26.6260574 13.9312977C25.5488913 13.9312977 24.6756757 13.0580821 24.6756757 11.980916 24.6756757 10.90375 25.5488913 10.0305344 26.6260574 10.0305344L54.360122 10.0305344C54.4490813 10.0305344 54.5366496 10.0364901 54.6224498 10.0480247 55.1605142 10.0371362 55.7265155 10.0305344 56.3105037 10.0305344L56.6080508 10.0311078C60.0599612 10.0444399 62.8108108 10.2885735 62.8108108 10.5877863 62.8108108 10.6831446 62.5314123 10.7729087 62.0389659 10.8513904 62.5031757 11.1475447 62.8108108 11.6676173 62.8108108 12.259542 62.8108108 13.1828272 62.0623403 13.9312977 61.1390551 13.9312977L26.6260574 13.9312977zM26.6260574 25.0763359C25.5488913 25.0763359 24.6756757 24.2031203 24.6756757 23.1259542 24.6756757 22.0487881 25.5488913 21.1755725 26.6260574 21.1755725L54.360122 21.1755725C54.4490813 21.1755725 54.5366496 21.1815283 54.6224498 21.1930629 55.1605142 21.1821744 55.7265155 21.1755725 56.3105037 21.1755725L56.6080508 21.1761459C60.0599612 21.189478 62.8108108 21.4336116 62.8108108 21.7328244 62.8108108 21.8281828 62.5314123 21.9179469 62.0389659 21.9964286 62.5031757 22.2925828 62.8108108 22.8126555 62.8108108 23.4045802 62.8108108 24.3278653 62.0623403 25.0763359 61.1390551 25.0763359L26.6260574 25.0763359zM26.6260574 36.221374C25.5488913 36.221374 24.6756757 35.3481584 24.6756757 34.2709924 24.6756757 33.1938263 25.5488913 32.3206107 26.6260574 32.3206107L54.360122 32.3206107C54.4490813 32.3206107 54.5366496 32.3265665 54.6224498 32.3381011 55.1605142 32.3272126 55.7265155 32.3206107 56.3105037 32.3206107L56.6080508 32.3211841C60.0599612 32.3345162 62.8108108 32.5786498 62.8108108 32.8778626 62.8108108 32.973221 62.5314123 33.062985 62.0389659 33.1414668 62.5031757 33.437621 62.8108108 33.9576936 62.8108108 34.5496183 62.8108108 35.4729035 62.0623403 36.221374 61.1390551 36.221374L26.6260574 36.221374zM26.6260574 47.3664122C25.5488913 47.3664122 24.6756757 46.4931966 24.6756757 45.4160305 24.6756757 44.3388645 25.5488913 43.4656489 26.6260574 43.4656489L54.360122 43.4656489C54.4490813 43.4656489 54.5366496 43.4716046 54.6224498 43.4831392 55.1605142 43.4722507 55.7265155 43.4656489 56.3105037 43.4656489L56.6080508 43.4662223C60.0599612 43.4795544 62.8108108 43.723688 62.8108108 44.0229008 62.8108108 44.1182591 62.5314123 44.2080232 62.0389659 44.2865049 62.5031757 44.5826592 62.8108108 45.1027318 62.8108108 45.6946565 62.8108108 46.6179417 62.0623403 47.3664122 61.1390551 47.3664122L26.6260574 47.3664122zM26.6260574 58.5114504C25.5488913 58.5114504 24.6756757 57.6382348 24.6756757 56.5610687 24.6756757 55.4839026 25.5488913 54.610687 26.6260574 54.610687L54.360122 54.610687C54.4490813 54.610687 54.5366496 54.6166428 54.6224498 54.6281774 55.1605142 54.6172889 55.7265155 54.610687 56.3105037 54.610687L56.6080508 54.6112604C60.0599612 54.6245926 62.8108108 54.8687261 62.8108108 55.1679389 62.8108108 55.2632973 62.5314123 55.3530614 62.0389659 55.4315431 62.5031757 55.7276973 62.8108108 56.24777 62.8108108 56.8396947 62.8108108 57.7629798 62.0623403 58.5114504 61.1390551 58.5114504L26.6260574 58.5114504z"/>
      </g>
      <g transform="translate(307.93 278.653)">
        <path fill="#FFF" d="M0,8.35877863 C24.1955202,8.35877863 37.8419166,8.35877863 40.9391892,8.35877863 C45.5850981,8.35877863 49.3513514,4.61642596 49.3513514,0 C42.9954955,0 29.3490991,0 8.41216216,0" transform="rotate(180 24.676 4.18)"/>
        <path fill="#FFF" d="M20.1891892,64.6412214 L20.1891892,0 L61.1283784,0 C65.7742873,0 69.5405405,3.74235266 69.5405405,8.35877863 L69.5405405,8.35877863 L69.5405405,64.6412214 L20.1891892,64.6412214 Z"/>
        <path fill="#EBEBEB" d="M25.2364865,73 C49.4320067,73 63.0784031,73 66.1756757,73 C70.8215846,73 74.5878378,69.2576473 74.5878378,64.6412214 C68.231982,64.6412214 54.5855856,64.6412214 33.6486486,64.6412214"/>
        <path fill="#EBEBEB" d="M33.6486486,73 C57.8441689,73 71.4905653,73 74.5878378,73 C79.2337467,73 83,69.2576473 83,64.6412214 C76.6441441,64.6412214 62.9977477,64.6412214 42.0608108,64.6412214"/>
        <path fill="#FFF" d="M16.8243243,64.6412214 C16.8243243,69.2576473 20.5905776,73 25.2364865,73 C29.8823954,73 33.6486486,69.2576473 33.6486486,64.6412214 C33.6486486,60.0247954 29.8823954,56.2824427 25.2364865,56.2824427"/>
        <rect width="5.608" height="64.641" x="16.824" fill="#FFF"/>
        <path fill="#EBEBEB" d="M16.8243243 8.35877863C16.8243243 3.74235266 13.058071 0 8.41216216 0 3.76625329 0 0 3.74235266 0 8.35877863M26.6260574 13.9312977C25.5488913 13.9312977 24.6756757 13.0580821 24.6756757 11.980916 24.6756757 10.90375 25.5488913 10.0305344 26.6260574 10.0305344L54.360122 10.0305344C54.4490813 10.0305344 54.5366496 10.0364901 54.6224498 10.0480247 55.1605142 10.0371362 55.7265155 10.0305344 56.3105037 10.0305344L56.6080508 10.0311078C60.0599612 10.0444399 62.8108108 10.2885735 62.8108108 10.5877863 62.8108108 10.6831446 62.5314123 10.7729087 62.0389659 10.8513904 62.5031757 11.1475447 62.8108108 11.6676173 62.8108108 12.259542 62.8108108 13.1828272 62.0623403 13.9312977 61.1390551 13.9312977L26.6260574 13.9312977zM26.6260574 25.0763359C25.5488913 25.0763359 24.6756757 24.2031203 24.6756757 23.1259542 24.6756757 22.0487881 25.5488913 21.1755725 26.6260574 21.1755725L54.360122 21.1755725C54.4490813 21.1755725 54.5366496 21.1815283 54.6224498 21.1930629 55.1605142 21.1821744 55.7265155 21.1755725 56.3105037 21.1755725L56.6080508 21.1761459C60.0599612 21.189478 62.8108108 21.4336116 62.8108108 21.7328244 62.8108108 21.8281828 62.5314123 21.9179469 62.0389659 21.9964286 62.5031757 22.2925828 62.8108108 22.8126555 62.8108108 23.4045802 62.8108108 24.3278653 62.0623403 25.0763359 61.1390551 25.0763359L26.6260574 25.0763359zM26.6260574 36.221374C25.5488913 36.221374 24.6756757 35.3481584 24.6756757 34.2709924 24.6756757 33.1938263 25.5488913 32.3206107 26.6260574 32.3206107L54.360122 32.3206107C54.4490813 32.3206107 54.5366496 32.3265665 54.6224498 32.3381011 55.1605142 32.3272126 55.7265155 32.3206107 56.3105037 32.3206107L56.6080508 32.3211841C60.0599612 32.3345162 62.8108108 32.5786498 62.8108108 32.8778626 62.8108108 32.973221 62.5314123 33.062985 62.0389659 33.1414668 62.5031757 33.437621 62.8108108 33.9576936 62.8108108 34.5496183 62.8108108 35.4729035 62.0623403 36.221374 61.1390551 36.221374L26.6260574 36.221374zM26.6260574 47.3664122C25.5488913 47.3664122 24.6756757 46.4931966 24.6756757 45.4160305 24.6756757 44.3388645 25.5488913 43.4656489 26.6260574 43.4656489L54.360122 43.4656489C54.4490813 43.4656489 54.5366496 43.4716046 54.6224498 43.4831392 55.1605142 43.4722507 55.7265155 43.4656489 56.3105037 43.4656489L56.6080508 43.4662223C60.0599612 43.4795544 62.8108108 43.723688 62.8108108 44.0229008 62.8108108 44.1182591 62.5314123 44.2080232 62.0389659 44.2865049 62.5031757 44.5826592 62.8108108 45.1027318 62.8108108 45.6946565 62.8108108 46.6179417 62.0623403 47.3664122 61.1390551 47.3664122L26.6260574 47.3664122zM26.6260574 58.5114504C25.5488913 58.5114504 24.6756757 57.6382348 24.6756757 56.5610687 24.6756757 55.4839026 25.5488913 54.610687 26.6260574 54.610687L54.360122 54.610687C54.4490813 54.610687 54.5366496 54.6166428 54.6224498 54.6281774 55.1605142 54.6172889 55.7265155 54.610687 56.3105037 54.610687L56.6080508 54.6112604C60.0599612 54.6245926 62.8108108 54.8687261 62.8108108 55.1679389 62.8108108 55.2632973 62.5314123 55.3530614 62.0389659 55.4315431 62.5031757 55.7276973 62.8108108 56.24777 62.8108108 56.8396947 62.8108108 57.7629798 62.0623403 58.5114504 61.1390551 58.5114504L26.6260574 58.5114504z"/>
      </g>
      <g transform="translate(613.619 94.252)">
        <path fill="#FFF" d="M0,8.35877863 C24.1955202,8.35877863 37.8419166,8.35877863 40.9391892,8.35877863 C45.5850981,8.35877863 49.3513514,4.61642596 49.3513514,0 C42.9954955,0 29.3490991,0 8.41216216,0" transform="rotate(180 24.676 4.18)"/>
        <path fill="#FFF" d="M20.1891892,64.6412214 L20.1891892,1.13686838e-13 L61.1283784,1.13686838e-13 C65.7742873,1.13686838e-13 69.5405405,3.74235266 69.5405405,8.35877863 L69.5405405,8.35877863 L69.5405405,64.6412214 L20.1891892,64.6412214 Z"/>
        <path fill="#EBEBEB" d="M25.2364865,73 C49.4320067,73 63.0784031,73 66.1756757,73 C70.8215846,73 74.5878378,69.2576473 74.5878378,64.6412214 C68.231982,64.6412214 54.5855856,64.6412214 33.6486486,64.6412214"/>
        <path fill="#EBEBEB" d="M33.6486486,73 C57.8441689,73 71.4905653,73 74.5878378,73 C79.2337467,73 83,69.2576473 83,64.6412214 C76.6441441,64.6412214 62.9977477,64.6412214 42.0608108,64.6412214"/>
        <path fill="#FFF" d="M16.8243243,64.6412214 C16.8243243,69.2576473 20.5905776,73 25.2364865,73 C29.8823954,73 33.6486486,69.2576473 33.6486486,64.6412214 C33.6486486,60.0247954 29.8823954,56.2824427 25.2364865,56.2824427"/>
        <rect width="5.608" height="64.641" x="16.824" fill="#FFF"/>
        <path fill="#EBEBEB" d="M16.8243243 8.35877863C16.8243243 3.74235266 13.058071 0 8.41216216 0 3.76625329 0 0 3.74235266 0 8.35877863M26.6260574 13.9312977C25.5488913 13.9312977 24.6756757 13.0580821 24.6756757 11.980916 24.6756757 10.90375 25.5488913 10.0305344 26.6260574 10.0305344L54.360122 10.0305344C54.4490813 10.0305344 54.5366496 10.0364901 54.6224498 10.0480247 55.1605142 10.0371362 55.7265155 10.0305344 56.3105037 10.0305344L56.6080508 10.0311078C60.0599612 10.0444399 62.8108108 10.2885735 62.8108108 10.5877863 62.8108108 10.6831446 62.5314123 10.7729087 62.0389659 10.8513904 62.5031757 11.1475447 62.8108108 11.6676173 62.8108108 12.259542 62.8108108 13.1828272 62.0623403 13.9312977 61.1390551 13.9312977L26.6260574 13.9312977zM26.6260574 25.0763359C25.5488913 25.0763359 24.6756757 24.2031203 24.6756757 23.1259542 24.6756757 22.0487881 25.5488913 21.1755725 26.6260574 21.1755725L54.360122 21.1755725C54.4490813 21.1755725 54.5366496 21.1815283 54.6224498 21.1930629 55.1605142 21.1821744 55.7265155 21.1755725 56.3105037 21.1755725L56.6080508 21.1761459C60.0599612 21.189478 62.8108108 21.4336116 62.8108108 21.7328244 62.8108108 21.8281828 62.5314123 21.9179469 62.0389659 21.9964286 62.5031757 22.2925828 62.8108108 22.8126555 62.8108108 23.4045802 62.8108108 24.3278653 62.0623403 25.0763359 61.1390551 25.0763359L26.6260574 25.0763359zM26.6260574 36.221374C25.5488913 36.221374 24.6756757 35.3481584 24.6756757 34.2709924 24.6756757 33.1938263 25.5488913 32.3206107 26.6260574 32.3206107L54.360122 32.3206107C54.4490813 32.3206107 54.5366496 32.3265665 54.6224498 32.3381011 55.1605142 32.3272126 55.7265155 32.3206107 56.3105037 32.3206107L56.6080508 32.3211841C60.0599612 32.3345162 62.8108108 32.5786498 62.8108108 32.8778626 62.8108108 32.973221 62.5314123 33.062985 62.0389659 33.1414668 62.5031757 33.437621 62.8108108 33.9576936 62.8108108 34.5496183 62.8108108 35.4729035 62.0623403 36.221374 61.1390551 36.221374L26.6260574 36.221374zM26.6260574 47.3664122C25.5488913 47.3664122 24.6756757 46.4931966 24.6756757 45.4160305 24.6756757 44.3388645 25.5488913 43.4656489 26.6260574 43.4656489L54.360122 43.4656489C54.4490813 43.4656489 54.5366496 43.4716046 54.6224498 43.4831392 55.1605142 43.4722507 55.7265155 43.4656489 56.3105037 43.4656489L56.6080508 43.4662223C60.0599612 43.4795544 62.8108108 43.723688 62.8108108 44.0229008 62.8108108 44.1182591 62.5314123 44.2080232 62.0389659 44.2865049 62.5031757 44.5826592 62.8108108 45.1027318 62.8108108 45.6946565 62.8108108 46.6179417 62.0623403 47.3664122 61.1390551 47.3664122L26.6260574 47.3664122zM26.6260574 58.5114504C25.5488913 58.5114504 24.6756757 57.6382348 24.6756757 56.5610687 24.6756757 55.4839026 25.5488913 54.610687 26.6260574 54.610687L54.360122 54.610687C54.4490813 54.610687 54.5366496 54.6166428 54.6224498 54.6281774 55.1605142 54.6172889 55.7265155 54.610687 56.3105037 54.610687L56.6080508 54.6112604C60.0599612 54.6245926 62.8108108 54.8687261 62.8108108 55.1679389 62.8108108 55.2632973 62.5314123 55.3530614 62.0389659 55.4315431 62.5031757 55.7276973 62.8108108 56.24777 62.8108108 56.8396947 62.8108108 57.7629798 62.0623403 58.5114504 61.1390551 58.5114504L26.6260574 58.5114504z"/>
      </g>
      <g transform="translate(307 93.588)">
        <path fill="#FFF" d="M20.1891892,64.6412214 L20.1891892,0 L61.1283784,0 C65.7742873,0 69.5405405,3.74235266 69.5405405,8.35877863 L69.5405405,8.35877863 L69.5405405,64.6412214 L20.1891892,64.6412214 Z"/>
        <path fill="#EBEBEB" d="M25.2364865,73 C49.4320067,73 63.0784031,73 66.1756757,73 C70.8215846,73 74.5878378,69.2576473 74.5878378,64.6412214 C68.231982,64.6412214 54.5855856,64.6412214 33.6486486,64.6412214"/>
        <path fill="#EBEBEB" d="M33.6486486,73 C57.8441689,73 71.4905653,73 74.5878378,73 C79.2337467,73 83,69.2576473 83,64.6412214 C76.6441441,64.6412214 62.9977477,64.6412214 42.0608108,64.6412214"/>
        <path fill="#FFF" d="M16.8243243,64.6412214 C16.8243243,69.2576473 20.5905776,73 25.2364865,73 C29.8823954,73 33.6486486,69.2576473 33.6486486,64.6412214 C33.6486486,60.0247954 29.8823954,56.2824427 25.2364865,56.2824427"/>
        <rect width="5.608" height="64.641" x="16.824" fill="#FFF"/>
        <path fill="#EBEBEB" d="M26.6260574 47.3664122C25.5488913 47.3664122 24.6756757 46.4931966 24.6756757 45.4160305 24.6756757 44.3388645 25.5488913 43.4656489 26.6260574 43.4656489L54.360122 43.4656489C54.4490813 43.4656489 54.5366496 43.4716046 54.6224498 43.4831392 55.1605142 43.4722507 55.7265155 43.4656489 56.3105037 43.4656489L56.6080508 43.4662223C60.0599612 43.4795544 62.8108108 43.723688 62.8108108 44.0229008 62.8108108 44.1182591 62.5314123 44.2080232 62.0389659 44.2865049 62.5031757 44.5826592 62.8108108 45.1027318 62.8108108 45.6946565 62.8108108 46.6179417 62.0623403 47.3664122 61.1390551 47.3664122L26.6260574 47.3664122zM26.6260574 58.5114504C25.5488913 58.5114504 24.6756757 57.6382348 24.6756757 56.5610687 24.6756757 55.4839026 25.5488913 54.610687 26.6260574 54.610687L54.360122 54.610687C54.4490813 54.610687 54.5366496 54.6166428 54.6224498 54.6281774 55.1605142 54.6172889 55.7265155 54.610687 56.3105037 54.610687L56.6080508 54.6112604C60.0599612 54.6245926 62.8108108 54.8687261 62.8108108 55.1679389 62.8108108 55.2632973 62.5314123 55.3530614 62.0389659 55.4315431 62.5031757 55.7276973 62.8108108 56.24777 62.8108108 56.8396947 62.8108108 57.7629798 62.0623403 58.5114504 61.1390551 58.5114504L26.6260574 58.5114504z"/>
      </g>
      <g transform="translate(308.04 371.798)">
        <path fill="#FFF" d="M0,8.35877863 C24.1955202,8.35877863 37.8419166,8.35877863 40.9391892,8.35877863 C45.5850981,8.35877863 49.3513514,4.61642596 49.3513514,0 C42.9954955,0 29.3490991,0 8.41216216,0" transform="rotate(180 24.676 4.18)"/>
        <path fill="#FFF" d="M20.1891892,64.6412214 L20.1891892,1.13686838e-13 L61.1283784,1.13686838e-13 C65.7742873,1.13686838e-13 69.5405405,3.74235266 69.5405405,8.35877863 L69.5405405,8.35877863 L69.5405405,64.6412214 L20.1891892,64.6412214 Z"/>
        <rect width="5.608" height="64.641" x="16.824" fill="#FFF"/>
        <path fill="#EBEBEB" d="M16.8243243 8.35877863C16.8243243 3.74235266 13.058071 0 8.41216216 0 3.76625329 0 0 3.74235266 0 8.35877863M26.6260574 13.9312977C25.5488913 13.9312977 24.6756757 13.0580821 24.6756757 11.980916 24.6756757 10.90375 25.5488913 10.0305344 26.6260574 10.0305344L54.360122 10.0305344C54.4490813 10.0305344 54.5366496 10.0364901 54.6224498 10.0480247 55.1605142 10.0371362 55.7265155 10.0305344 56.3105037 10.0305344L56.6080508 10.0311078C60.0599612 10.0444399 62.8108108 10.2885735 62.8108108 10.5877863 62.8108108 10.6831446 62.5314123 10.7729087 62.0389659 10.8513904 62.5031757 11.1475447 62.8108108 11.6676173 62.8108108 12.259542 62.8108108 13.1828272 62.0623403 13.9312977 61.1390551 13.9312977L26.6260574 13.9312977zM26.6260574 25.0763359C25.5488913 25.0763359 24.6756757 24.2031203 24.6756757 23.1259542 24.6756757 22.0487881 25.5488913 21.1755725 26.6260574 21.1755725L54.360122 21.1755725C54.4490813 21.1755725 54.5366496 21.1815283 54.6224498 21.1930629 55.1605142 21.1821744 55.7265155 21.1755725 56.3105037 21.1755725L56.6080508 21.1761459C60.0599612 21.189478 62.8108108 21.4336116 62.8108108 21.7328244 62.8108108 21.8281828 62.5314123 21.9179469 62.0389659 21.9964286 62.5031757 22.2925828 62.8108108 22.8126555 62.8108108 23.4045802 62.8108108 24.3278653 62.0623403 25.0763359 61.1390551 25.0763359L26.6260574 25.0763359zM26.6260574 36.221374C25.5488913 36.221374 24.6756757 35.3481584 24.6756757 34.2709924 24.6756757 33.1938263 25.5488913 32.3206107 26.6260574 32.3206107L54.360122 32.3206107C54.4490813 32.3206107 54.5366496 32.3265665 54.6224498 32.3381011 55.1605142 32.3272126 55.7265155 32.3206107 56.3105037 32.3206107L56.6080508 32.3211841C60.0599612 32.3345162 62.8108108 32.5786498 62.8108108 32.8778626 62.8108108 32.973221 62.5314123 33.062985 62.0389659 33.1414668 62.5031757 33.437621 62.8108108 33.9576936 62.8108108 34.5496183 62.8108108 35.4729035 62.0623403 36.221374 61.1390551 36.221374L26.6260574 36.221374zM26.6260574 47.3664122C25.5488913 47.3664122 24.6756757 46.4931966 24.6756757 45.4160305 24.6756757 44.3388645 25.5488913 43.4656489 26.6260574 43.4656489L54.360122 43.4656489C54.4490813 43.4656489 54.5366496 43.4716046 54.6224498 43.4831392 55.1605142 43.4722507 55.7265155 43.4656489 56.3105037 43.4656489L56.6080508 43.4662223C60.0599612 43.4795544 62.8108108 43.723688 62.8108108 44.0229008 62.8108108 44.1182591 62.5314123 44.2080232 62.0389659 44.2865049 62.5031757 44.5826592 62.8108108 45.1027318 62.8108108 45.6946565 62.8108108 46.6179417 62.0623403 47.3664122 61.1390551 47.3664122L26.6260574 47.3664122z"/>
      </g>
      <g transform="translate(920.686 92.725)">
        <path fill="#FFF" d="M0,8.35877863 C24.1955202,8.35877863 37.8419166,8.35877863 40.9391892,8.35877863 C45.5850981,8.35877863 49.3513514,4.61642596 49.3513514,0 C42.9954955,0 29.3490991,0 8.41216216,0" transform="rotate(180 24.676 4.18)"/>
        <path fill="#FFF" d="M16.8243243,64.6412214 C16.8243243,69.2576473 20.5905776,73 25.2364865,73 C29.8823954,73 33.6486486,69.2576473 33.6486486,64.6412214 C33.6486486,60.0247954 29.8823954,56.2824427 25.2364865,56.2824427"/>
        <path fill="#EBEBEB" d="M16.8243243,8.35877863 C16.8243243,3.74235266 13.058071,0 8.41216216,0 C3.76625329,0 0,3.74235266 0,8.35877863"/>
      </g>
      <g transform="translate(306.852 185.767)">
        <path fill="#FFF" d="M0,8.35877863 C24.1955202,8.35877863 37.8419166,8.35877863 40.9391892,8.35877863 C45.5850981,8.35877863 49.3513514,4.61642596 49.3513514,0 C42.9954955,0 29.3490991,0 8.41216216,0" transform="rotate(180 24.676 4.18)"/>
        <path fill="#FFF" d="M20.1891892,64.6412214 L20.1891892,-1.13686838e-13 L61.1283784,-1.13686838e-13 C65.7742873,-1.13686838e-13 69.5405405,3.74235266 69.5405405,8.35877863 L69.5405405,8.35877863 L69.5405405,64.6412214 L20.1891892,64.6412214 Z"/>
        <path fill="#EBEBEB" d="M25.2364865,73 C49.4320067,73 63.0784031,73 66.1756757,73 C70.8215846,73 74.5878378,69.2576473 74.5878378,64.6412214 C68.231982,64.6412214 54.5855856,64.6412214 33.6486486,64.6412214"/>
        <path fill="#EBEBEB" d="M33.6486486,73 C57.8441689,73 71.4905653,73 74.5878378,73 C79.2337467,73 83,69.2576473 83,64.6412214 C76.6441441,64.6412214 62.9977477,64.6412214 42.0608108,64.6412214"/>
        <path fill="#FFF" d="M16.8243243,64.6412214 C16.8243243,69.2576473 20.5905776,73 25.2364865,73 C29.8823954,73 33.6486486,69.2576473 33.6486486,64.6412214 C33.6486486,60.0247954 29.8823954,56.2824427 25.2364865,56.2824427"/>
        <rect width="5.608" height="64.641" x="16.824" fill="#FFF"/>
        <path fill="#EBEBEB" d="M16.8243243 8.35877863C16.8243243 3.74235266 13.058071 0 8.41216216 0 3.76625329 0 0 3.74235266 0 8.35877863M26.6260574 13.9312977C25.5488913 13.9312977 24.6756757 13.0580821 24.6756757 11.980916 24.6756757 10.90375 25.5488913 10.0305344 26.6260574 10.0305344L54.360122 10.0305344C54.4490813 10.0305344 54.5366496 10.0364901 54.6224498 10.0480247 55.1605142 10.0371362 55.7265155 10.0305344 56.3105037 10.0305344L56.6080508 10.0311078C60.0599612 10.0444399 62.8108108 10.2885735 62.8108108 10.5877863 62.8108108 10.6831446 62.5314123 10.7729087 62.0389659 10.8513904 62.5031757 11.1475447 62.8108108 11.6676173 62.8108108 12.259542 62.8108108 13.1828272 62.0623403 13.9312977 61.1390551 13.9312977L26.6260574 13.9312977zM26.6260574 25.0763359C25.5488913 25.0763359 24.6756757 24.2031203 24.6756757 23.1259542 24.6756757 22.0487881 25.5488913 21.1755725 26.6260574 21.1755725L54.360122 21.1755725C54.4490813 21.1755725 54.5366496 21.1815283 54.6224498 21.1930629 55.1605142 21.1821744 55.7265155 21.1755725 56.3105037 21.1755725L56.6080508 21.1761459C60.0599612 21.189478 62.8108108 21.4336116 62.8108108 21.7328244 62.8108108 21.8281828 62.5314123 21.9179469 62.0389659 21.9964286 62.5031757 22.2925828 62.8108108 22.8126555 62.8108108 23.4045802 62.8108108 24.3278653 62.0623403 25.0763359 61.1390551 25.0763359L26.6260574 25.0763359zM26.6260574 36.221374C25.5488913 36.221374 24.6756757 35.3481584 24.6756757 34.2709924 24.6756757 33.1938263 25.5488913 32.3206107 26.6260574 32.3206107L54.360122 32.3206107C54.4490813 32.3206107 54.5366496 32.3265665 54.6224498 32.3381011 55.1605142 32.3272126 55.7265155 32.3206107 56.3105037 32.3206107L56.6080508 32.3211841C60.0599612 32.3345162 62.8108108 32.5786498 62.8108108 32.8778626 62.8108108 32.973221 62.5314123 33.062985 62.0389659 33.1414668 62.5031757 33.437621 62.8108108 33.9576936 62.8108108 34.5496183 62.8108108 35.4729035 62.0623403 36.221374 61.1390551 36.221374L26.6260574 36.221374zM26.6260574 47.3664122C25.5488913 47.3664122 24.6756757 46.4931966 24.6756757 45.4160305 24.6756757 44.3388645 25.5488913 43.4656489 26.6260574 43.4656489L54.360122 43.4656489C54.4490813 43.4656489 54.5366496 43.4716046 54.6224498 43.4831392 55.1605142 43.4722507 55.7265155 43.4656489 56.3105037 43.4656489L56.6080508 43.4662223C60.0599612 43.4795544 62.8108108 43.723688 62.8108108 44.0229008 62.8108108 44.1182591 62.5314123 44.2080232 62.0389659 44.2865049 62.5031757 44.5826592 62.8108108 45.1027318 62.8108108 45.6946565 62.8108108 46.6179417 62.0623403 47.3664122 61.1390551 47.3664122L26.6260574 47.3664122zM26.6260574 58.5114504C25.5488913 58.5114504 24.6756757 57.6382348 24.6756757 56.5610687 24.6756757 55.4839026 25.5488913 54.610687 26.6260574 54.610687L54.360122 54.610687C54.4490813 54.610687 54.5366496 54.6166428 54.6224498 54.6281774 55.1605142 54.6172889 55.7265155 54.610687 56.3105037 54.610687L56.6080508 54.6112604C60.0599612 54.6245926 62.8108108 54.8687261 62.8108108 55.1679389 62.8108108 55.2632973 62.5314123 55.3530614 62.0389659 55.4315431 62.5031757 55.7276973 62.8108108 56.24777 62.8108108 56.8396947 62.8108108 57.7629798 62.0623403 58.5114504 61.1390551 58.5114504L26.6260574 58.5114504z"/>
      </g>
      <g transform="translate(919.832 186.129)">
        <path fill="#FFF" d="M0,8.35877863 C24.1955202,8.35877863 37.8419166,8.35877863 40.9391892,8.35877863 C45.5850981,8.35877863 49.3513514,4.61642596 49.3513514,0 C42.9954955,0 29.3490991,0 8.41216216,0" transform="rotate(180 24.676 4.18)"/>
        <path fill="#FFF" d="M20.1891892,64.6412214 L20.1891892,0 L61.1283784,0 C65.7742873,0 69.5405405,3.74235266 69.5405405,8.35877863 L69.5405405,8.35877863 L69.5405405,64.6412214 L20.1891892,64.6412214 Z"/>
        <path fill="#EBEBEB" d="M25.2364865,73 C49.4320067,73 63.0784031,73 66.1756757,73 C70.8215846,73 74.5878378,69.2576473 74.5878378,64.6412214 C68.231982,64.6412214 54.5855856,64.6412214 33.6486486,64.6412214"/>
        <path fill="#EBEBEB" d="M33.6486486,73 C57.8441689,73 71.4905653,73 74.5878378,73 C79.2337467,73 83,69.2576473 83,64.6412214 C76.6441441,64.6412214 62.9977477,64.6412214 42.0608108,64.6412214"/>
        <path fill="#FFF" d="M16.8243243,64.6412214 C16.8243243,69.2576473 20.5905776,73 25.2364865,73 C29.8823954,73 33.6486486,69.2576473 33.6486486,64.6412214 C33.6486486,60.0247954 29.8823954,56.2824427 25.2364865,56.2824427"/>
        <rect width="5.608" height="64.641" x="16.824" fill="#FFF"/>
        <path fill="#EBEBEB" d="M16.8243243 8.35877863C16.8243243 3.74235266 13.058071 0 8.41216216 0 3.76625329 0 0 3.74235266 0 8.35877863M26.6260574 13.9312977C25.5488913 13.9312977 24.6756757 13.0580821 24.6756757 11.980916 24.6756757 10.90375 25.5488913 10.0305344 26.6260574 10.0305344L54.360122 10.0305344C54.4490813 10.0305344 54.5366496 10.0364901 54.6224498 10.0480247 55.1605142 10.0371362 55.7265155 10.0305344 56.3105037 10.0305344L56.6080508 10.0311078C60.0599612 10.0444399 62.8108108 10.2885735 62.8108108 10.5877863 62.8108108 10.6831446 62.5314123 10.7729087 62.0389659 10.8513904 62.5031757 11.1475447 62.8108108 11.6676173 62.8108108 12.259542 62.8108108 13.1828272 62.0623403 13.9312977 61.1390551 13.9312977L26.6260574 13.9312977zM26.6260574 25.0763359C25.5488913 25.0763359 24.6756757 24.2031203 24.6756757 23.1259542 24.6756757 22.0487881 25.5488913 21.1755725 26.6260574 21.1755725L54.360122 21.1755725C54.4490813 21.1755725 54.5366496 21.1815283 54.6224498 21.1930629 55.1605142 21.1821744 55.7265155 21.1755725 56.3105037 21.1755725L56.6080508 21.1761459C60.0599612 21.189478 62.8108108 21.4336116 62.8108108 21.7328244 62.8108108 21.8281828 62.5314123 21.9179469 62.0389659 21.9964286 62.5031757 22.2925828 62.8108108 22.8126555 62.8108108 23.4045802 62.8108108 24.3278653 62.0623403 25.0763359 61.1390551 25.0763359L26.6260574 25.0763359zM26.6260574 36.221374C25.5488913 36.221374 24.6756757 35.3481584 24.6756757 34.2709924 24.6756757 33.1938263 25.5488913 32.3206107 26.6260574 32.3206107L54.360122 32.3206107C54.4490813 32.3206107 54.5366496 32.3265665 54.6224498 32.3381011 55.1605142 32.3272126 55.7265155 32.3206107 56.3105037 32.3206107L56.6080508 32.3211841C60.0599612 32.3345162 62.8108108 32.5786498 62.8108108 32.8778626 62.8108108 32.973221 62.5314123 33.062985 62.0389659 33.1414668 62.5031757 33.437621 62.8108108 33.9576936 62.8108108 34.5496183 62.8108108 35.4729035 62.0623403 36.221374 61.1390551 36.221374L26.6260574 36.221374zM26.6260574 47.3664122C25.5488913 47.3664122 24.6756757 46.4931966 24.6756757 45.4160305 24.6756757 44.3388645 25.5488913 43.4656489 26.6260574 43.4656489L54.360122 43.4656489C54.4490813 43.4656489 54.5366496 43.4716046 54.6224498 43.4831392 55.1605142 43.4722507 55.7265155 43.4656489 56.3105037 43.4656489L56.6080508 43.4662223C60.0599612 43.4795544 62.8108108 43.723688 62.8108108 44.0229008 62.8108108 44.1182591 62.5314123 44.2080232 62.0389659 44.2865049 62.5031757 44.5826592 62.8108108 45.1027318 62.8108108 45.6946565 62.8108108 46.6179417 62.0623403 47.3664122 61.1390551 47.3664122L26.6260574 47.3664122zM26.6260574 58.5114504C25.5488913 58.5114504 24.6756757 57.6382348 24.6756757 56.5610687 24.6756757 55.4839026 25.5488913 54.610687 26.6260574 54.610687L54.360122 54.610687C54.4490813 54.610687 54.5366496 54.6166428 54.6224498 54.6281774 55.1605142 54.6172889 55.7265155 54.610687 56.3105037 54.610687L56.6080508 54.6112604C60.0599612 54.6245926 62.8108108 54.8687261 62.8108108 55.1679389 62.8108108 55.2632973 62.5314123 55.3530614 62.0389659 55.4315431 62.5031757 55.7276973 62.8108108 56.24777 62.8108108 56.8396947 62.8108108 57.7629798 62.0623403 58.5114504 61.1390551 58.5114504L26.6260574 58.5114504z"/>
      </g>
    </g>
    <text fill="#FFF" font-family="ArialRoundedMTBold, Arial Rounded MT Bold" font-size="50" transform="rotate(15 548.788 181.608)">
      <tspan x="404.788" y="199.608">@MABillBot</tspan>
    </text>
  </g>
</svg>
