<svg xmlns="http://www.w3.org/2000/svg" width="140" height="140" viewBox="0 0 140 140">
  <defs>
    <linearGradient id="slapped-profile-alt-a" x1="100%" x2="0%" y1="13.563%" y2="86.437%">
      <stop offset="0%" stop-color="#3D32FF"/>
      <stop offset="100%" stop-color="#E020D9"/>
    </linearGradient>
  </defs>
  <g fill="none" fill-rule="evenodd">
    <rect width="140" height="140" fill="#FEBE16"/>
    <rect width="164" height="140" x="-12" fill="url(#slapped-profile-alt-a)"/>
    <path fill="#EEEFF1" stroke="#EEEFF1" d="M65,107 L78,107 C96.2253967,107 111,121.774603 111,140 L111,160 C111,167.179702 105.179702,173 98,173 L45,173 C37.8202983,173 32,167.179702 32,160 L32,140 C32,121.774603 46.7746033,107 65,107 Z"/>
    <path fill="#FFF" d="M65.5,107 L76.5,107 C92.2401154,107 105,119.759885 105,135.5 L105,151 C105,158.179702 99.1797017,164 92,164 L50,164 C42.8202983,164 37,158.179702 37,151 L37,135.5 C37,119.759885 49.7598846,107 65.5,107 Z"/>
    <path fill="#D2D3D5" d="M61,99 L81,99 L81,109 C81,114.522847 76.5228475,119 71,119 C65.4771525,119 61,114.522847 61,109 L61,99 L61,99 Z"/>
    <rect width="91" height="76" x="25" y="27" fill="#EEEFF1" stroke="#EEEFF1" rx="13"/>
    <rect width="71" height="59" x="35" y="36" fill="#363849" stroke="#EEEFF1" rx="13"/>
    <circle cx="53" cy="60" r="5" fill="#54EE4C"/>
    <circle cx="88" cy="60" r="5" fill="#54EE4C"/>
    <path fill="#54EE4C" d="M60,73 C60,78.5228475 64.4771525,83 70,83 C75.5228475,83 80,78.5228475 80,73"/>
    <polygon fill="#EEEFF1" points="97.01 14.661 99.839 17.49 87.818 29.51 84.99 26.682"/>
    <polygon fill="#EEEFF1" points="43.818 14.661 40.99 17.49 53.01 29.51 55.839 26.682"/>
    <circle cx="41.5" cy="14.5" r="6.5" fill="#D8D8D8"/>
    <circle cx="98.5" cy="14.5" r="6.5" fill="#D8D8D8"/>
    <g transform="translate(87.807 108.775)">
      <path fill="#FF1A1A" stroke="#FF1A1A" stroke-linejoin="round" d="M16.6930226,7.725 L16.6930226,30.5104009 L10.6930226,23.9649464 L4.69302256,30.5104009 L4.69302256,7.725 L16.6930226,7.725 Z"/>
      <path fill="#1363D2" d="M21.45,10.725 C21.45,16.6484776 16.6484776,21.45 10.725,21.45 C4.80152237,21.45 -9.23705556e-14,16.6484776 -9.23705556e-14,10.725 C-9.23705556e-14,4.80152237 4.80152237,2.13162821e-14 10.725,2.13162821e-14 C16.6484776,2.13162821e-14 21.45,4.80152237 21.45,10.725 Z"/>
      <path fill="#FFF" d="M4.19152179,9.73984212 C3.69579059,9.36528966 3.59755581,8.65978535 3.97210827,8.16405415 C4.18472652,7.88264765 4.51701064,7.71724138 4.86970901,7.71724138 L8.53210942,7.71724138 L9.64933042,4.06984341 C9.83129962,3.4757675 10.4604085,3.14168901 11.0544844,3.3236582 C11.4116762,3.43306832 11.6912595,3.71265155 11.8006696,4.06984341 L12.9178906,7.71724138 L16.580291,7.71724138 C17.2016113,7.71724138 17.705291,8.22092104 17.705291,8.84224138 C17.705291,9.19493975 17.5398847,9.52722387 17.2584782,9.73984212 L14.2472588,12.0149856 L15.415539,15.7201026 C15.6023825,16.3126636 15.2734836,16.9444957 14.6809226,17.1313393 C14.3310166,17.24167 13.949292,17.1744464 13.658127,16.9512199 L10.725,14.7024892 L7.791873,16.9512199 C7.29878922,17.3292508 6.59261125,17.235982 6.21458036,16.7428983 C5.99135388,16.4517333 5.9241303,16.0700087 6.03446103,15.7201026 L7.20274116,12.0149856 L4.19152179,9.73984212 Z"/>
    </g>
  </g>
</svg>
